<?xml version="1.0" encoding="utf-8"?>
<!DOCTYPE svg PUBLIC "-//W3C//DTD SVG 1.1//EN" "http://www.w3.org/Graphics/SVG/1.1/DTD/svg11.dtd">
<svg version="1.1" id="Layer_1" xmlns="http://www.w3.org/2000/svg" xmlns:xlink="http://www.w3.org/1999/xlink" x="0px" y="0px"
	 width="262px" height="20px" viewBox="0 0 262 20" enable-background="new 0 0 262 20" xml:space="preserve">
<g>
	<path fill="#FFFFFF" d="M63.875,7.742h-7.742V0h-4.517v20.002h4.517v-7.743h7.742v7.743h4.517V0h-4.517V7.742z M87.102,12.259
		c0,1.782-1.589,3.226-3.549,3.226c-1.959,0-3.548-1.443-3.548-3.226V0h-4.517v12.259c0,4.276,3.611,7.743,8.065,7.743
		s8.065-3.467,8.065-7.743V0h-4.517V12.259z M102.587,0H98.07v20.002h11.614v-4.518h-7.097V0z M123.233,0h-7.743v20.002h4.517
		v-7.743h3.226c3.207,0,5.807-2.743,5.807-6.129C129.04,2.744,126.44,0,123.233,0z M123.233,8.388h-3.226V3.872h3.226
		c1.069,0,1.936,1.011,1.936,2.258C125.169,7.376,124.302,8.388,123.233,8.388z M140.967,7.916
		c-2.146-0.889-2.961-1.666-2.961-2.693c0-0.751,0.732-1.417,1.713-1.417c0,0,1.791-0.111,4.275,2.052l2.289-3.414
		C143.338-0.055,139.936,0,139.936,0c-4.188,0-6.281,2.778-6.281,5.528c0,3.332,2.938,5.194,5.275,6.14
		c1.848,0.748,2.799,1.637,2.799,2.805c0,0.972-0.787,1.667-1.875,1.667c0,0-1.826,0.131-4.441-2.017l-1.855,3.336
		c2.201,2.673,6.486,2.541,6.486,2.541c3.998,0,6.418-2.889,6.418-5.75C146.461,10.473,143.09,8.778,140.967,7.916z M151.623,4.517
		h4.516v15.485h4.516V4.517h4.518V0h-13.549V4.517z M188.398,4.517h4.516v15.485h4.518V4.517h4.516V0h-13.549V4.517z
		 M207.754,20.002h4.518V0h-4.518V20.002z M176.141,0l-9.033,20.002h4.516l1.291-3.227h7.742l1.291,3.227h4.516L177.43,0H176.141z
		 M174.527,12.904l2.258-4.517l2.258,4.517H174.527z M228.078,0c-5.523,0-10,4.478-10,10.001s4.477,10.001,10,10.001
		s10-4.478,10-10.001S233.602,0,228.078,0z M228.078,15.484c-3.029,0-5.484-2.455-5.484-5.483c0-3.029,2.455-5.484,5.484-5.484
		s5.484,2.455,5.484,5.484C233.562,13.029,231.107,15.484,228.078,15.484z M256.789,0v10.646L245.176,0h-1.289v20.002h4.516V9.355
		l11.613,10.646h1.291V0H256.789z M22.582,0L16.13,6.452l3.871,3.871l3.71-3.71l3.387,3.388l-10,10.001h6.452l9.355-9.356V9.355
		L23.55,0H22.582z M9.194,13.389l-3.387-3.388L15.807,0H9.355L0,9.355v1.291l9.355,9.356h0.968l6.452-6.453l-3.871-3.871
		L9.194,13.389z"/>
</g>
</svg>
