<?xml version="1.0" encoding="utf-8"?>
<!-- Generator: Adobe Illustrator 15.0.0, SVG Export Plug-In . SVG Version: 6.00 Build 0)  -->
<!DOCTYPE svg PUBLIC "-//W3C//DTD SVG 1.1//EN" "http://www.w3.org/Graphics/SVG/1.1/DTD/svg11.dtd">
<svg version="1.1" xmlns="http://www.w3.org/2000/svg" xmlns:xlink="http://www.w3.org/1999/xlink" x="0px" y="0px" width="200px"
	 height="800px" viewBox="0 0 200 800" enable-background="new 0 0 200 800" xml:space="preserve">
<g id="phone">
	<path fill-rule="evenodd" clip-rule="evenodd" fill="#FFFFFF" d="M24.666,23.333v-0.666L22,20h-0.667L20,21.333v3.334L27.333,32
		h3.333l1.333-1.333V30l-2.666-2.667h-0.667L26.999,29L23,25L24.666,23.333z"/>
</g>
<g id="glass_smallest">
	<g>
		<g>
			<path fill-rule="evenodd" clip-rule="evenodd" fill="#FFFFFF" d="M19.994,97.591c0.449-0.757,0.722-1.638,0.722-2.591
				c0-2.762-2.175-5-4.858-5C13.175,90,11,92.238,11,95s2.175,5,4.857,5c1.094,0,2.092-0.385,2.903-1.013L21.688,102l1.295-1.333
				L19.994,97.591z M15.857,98.334c-1.789,0-3.238-1.492-3.238-3.334s1.449-3.333,3.238-3.333s3.239,1.491,3.239,3.333
				S17.646,98.334,15.857,98.334z"/>
		</g>
	</g>
</g>
<g id="Glasses_small">
	<g>
		<g>
			<path fill-rule="evenodd" clip-rule="evenodd" fill="#574A46" d="M21.69,180.611c0.791-1.105,1.264-2.467,1.264-3.945
				c0-3.682-2.899-6.666-6.478-6.666c-3.577,0-6.477,2.984-6.477,6.666c0,3.684,2.899,6.668,6.477,6.668
				c1.663,0,3.174-0.65,4.321-1.71L25.051,186l0.926-0.979L21.69,180.611z M16.477,181.666c-2.761,0-5-2.235-5-5
				c0-2.763,2.239-5,5-5s5,2.238,5,5C21.477,179.431,19.237,181.666,16.477,181.666z"/>
		</g>
	</g>
	<g>
		<g>
			<path fill-rule="evenodd" clip-rule="evenodd" fill="#FBA100" d="M21.69,260.611c0.791-1.105,1.264-2.467,1.264-3.945
				c0-3.682-2.899-6.666-6.478-6.666c-3.577,0-6.477,2.984-6.477,6.666c0,3.684,2.899,6.668,6.477,6.668
				c1.663,0,3.174-0.65,4.321-1.71L25.051,266l0.926-0.979L21.69,260.611z M16.477,261.666c-2.761,0-5-2.235-5-5
				c0-2.763,2.239-5,5-5s5,2.237,5,5C21.477,259.431,19.237,261.666,16.477,261.666z"/>
		</g>
	</g>
	<g>
		<g>
			<path fill-rule="evenodd" clip-rule="evenodd" fill="#574A46" d="M27.536,345.916c1.186-1.658,1.895-3.699,1.895-5.916
				c0-5.523-4.349-10-9.716-10C14.349,330,10,334.477,10,340s4.349,10,9.715,10c2.494,0,4.76-0.975,6.48-2.563L32.574,354
				l1.391-1.47L27.536,345.916z M19.715,347.996c-4.414,0-8-3.568-8-7.996c0-4.418,3.585-8.004,8-8.004c4.415,0,8,3.586,8,8.004
				C27.715,344.428,24.129,347.996,19.715,347.996z"/>
		</g>
	</g>
	<g>
		<g>
			<path fill-rule="evenodd" clip-rule="evenodd" fill="#FBA100" d="M27.536,425.916c1.186-1.658,1.895-3.699,1.895-5.916
				c0-5.523-4.349-10-9.716-10C14.349,410,10,414.477,10,420s4.349,10,9.715,10c2.494,0,4.76-0.975,6.48-2.563L32.574,434
				l1.391-1.47L27.536,425.916z M19.715,427.996c-4.414,0-8-3.568-8-7.996c0-4.418,3.585-8.004,8-8.004c4.415,0,8,3.586,8,8.004
				C27.715,424.428,24.129,427.996,19.715,427.996z"/>
		</g>
	</g>
</g>
</svg>
