<?xml version="1.0" encoding="utf-8"?>
<!-- Generator: Adobe Illustrator 15.0.0, SVG Export Plug-In . SVG Version: 6.00 Build 0)  -->
<!DOCTYPE svg PUBLIC "-//W3C//DTD SVG 1.1//EN" "http://www.w3.org/Graphics/SVG/1.1/DTD/svg11.dtd">
<svg version="1.1" id="Layer_1" xmlns="http://www.w3.org/2000/svg" xmlns:xlink="http://www.w3.org/1999/xlink" x="0px" y="0px"
	 width="120px" height="800px" viewBox="41.5 409.5 120 800" enable-background="new 41.5 409.5 120 800" xml:space="preserve">
<g>
	<g>
		<path fill="#FFFFFF" d="M63.482,429.482c0.642-1.008,1.018-2.199,1.018-3.482c0-3.59-2.91-6.5-6.5-6.5s-6.5,2.91-6.5,6.5
			s2.91,6.5,6.5,6.5c1.283,0,2.475-0.376,3.482-1.018L64.5,434.5l2-2L63.482,429.482z M58,430.5c-2.484,0-4.5-2.014-4.5-4.5
			s2.016-4.5,4.5-4.5s4.5,2.014,4.5,4.5S60.484,430.5,58,430.5z"/>
	</g>
</g>
<path fill="#FFFFFF" d="M57.5,494.5v-1l-3-3h-1l-2,2v3.5l9.5,9.5h3.5l2-2v-1l-3-3h-1l-2,2l-5-5L57.5,494.5z"/>
<g>
	<g>
		<polygon fill="#FFFFFF" points="66.5,562.5 64.5,560.5 59,566 53.5,560.5 51.5,562.5 57,568 51.5,573.5 53.5,575.5 59,570 
			64.5,575.5 66.5,573.5 61,568 		"/>
	</g>
</g>
<path fill="#FFFFFF" d="M126.5,419.5h8l-4,4L126.5,419.5z"/>
<path fill="#FFFFFF" d="M134.5,564.5h-8l4-4L134.5,564.5z"/>
<path fill="#878484" d="M126.5,630.5h8l-4,4L126.5,630.5z"/>
<path fill="#878484" d="M134.5,704.5h-8l4-4L134.5,704.5z"/>
<g>
	<g>
		<path fill="#FFFFFF" d="M75.145,700.5h-0.968l-6.452,6.451l3.873,3.871l3.709-3.711l3.387,3.389l-10,10h6.451l9.355-9.355v-1.289
			L75.145,700.5z M60.789,713.889l-3.388-3.389l10.001-10H60.95l-9.355,9.354v1.291l9.356,9.355h0.968l6.452-6.451l-3.871-3.871
			L60.789,713.889z"/>
	</g>
</g>
<rect x="51.5" y="840.5" fill="#FFFFFF" width="20" height="4"/>
<rect x="51.5" y="856.5" fill="#FFFFFF" width="20" height="4"/>
<rect x="51.5" y="848.5" fill="#FFFFFF" width="20" height="4"/>
<rect x="71.5" y="1000.5" fill="#FFFFFF" width="55" height="50"/>
<path fill="#EBA019" d="M60,770.5c-4.694,0-8.5,3.806-8.5,8.5s3.806,8.5,8.5,8.5s8.5-3.806,8.5-8.5S64.694,770.5,60,770.5z
	 M60,784.5c-3.038,0-5.5-2.463-5.5-5.5s2.462-5.5,5.5-5.5c3.037,0,5.5,2.463,5.5,5.5S63.037,784.5,60,784.5z"/>
<rect x="65.982" y="783.214" transform="matrix(-0.7071 0.7071 -0.7071 -0.7071 671.9727 1295.1597)" fill="#EBA019" width="3.536" height="7.071"/>
<path fill="#FFFFFF" d="M61.5,930.5h-10l5-5L61.5,930.5z"/>
</svg>
