<?xml version="1.0" encoding="utf-8"?>
<!-- Generator: Adobe Illustrator 16.0.0, SVG Export Plug-In . SVG Version: 6.00 Build 0)  -->
<!DOCTYPE svg PUBLIC "-//W3C//DTD SVG 1.1//EN" "http://www.w3.org/Graphics/SVG/1.1/DTD/svg11.dtd">
<svg version="1.1" id="Layer_1" xmlns="http://www.w3.org/2000/svg" xmlns:xlink="http://www.w3.org/1999/xlink" x="0px" y="0px"
	 width="275px" height="35px" viewBox="0 0 275 35" enable-background="new 0 0 275 35" xml:space="preserve">
<g>
	<g>
		<path fill="#FFFFFF" d="M67.064,8.087h-8.129v-8.129h-4.742v21h4.742V12.83h8.129v8.129h4.742v-21h-4.742V8.087z M91.452,12.83
			c0,1.871-1.668,3.387-3.726,3.387S84,14.701,84,12.83V-0.042h-4.742V12.83c0,4.489,3.791,8.129,8.468,8.129
			c4.677,0,8.468-3.641,8.468-8.129V-0.042h-4.742V12.83L91.452,12.83z M107.711-0.042h-4.742v21h12.193v-4.743h-7.451V-0.042z
			 M129.389-0.042h-8.13v21h4.742V12.83h3.388c3.367,0,6.097-2.881,6.097-6.436S132.756-0.042,129.389-0.042z M129.389,8.766h-3.388
			V4.022h3.388c1.122,0,2.032,1.062,2.032,2.371C131.421,7.704,130.511,8.766,129.389,8.766z M148.008,8.271
			c-2.254-0.933-3.109-1.75-3.109-2.828c0-0.788,0.771-1.488,1.801-1.488c0,0,1.88-0.116,4.488,2.155l2.402-3.583
			c-3.093-2.626-6.665-2.568-6.665-2.568c-4.397,0-6.595,2.917-6.595,5.805c0,3.499,3.083,5.453,5.538,6.445
			c1.94,0.787,2.938,1.721,2.938,2.945c0,1.021-0.828,1.75-1.971,1.75c0,0-1.919,0.137-4.664-2.117l-1.945,3.504
			c2.311,2.805,6.812,2.666,6.812,2.666c4.196,0,6.737-3.033,6.737-6.037C153.775,10.955,150.234,9.175,148.008,8.271z
			 M159.195,4.701h4.74v16.258h4.742V4.701h4.74v-4.742h-14.229v4.742H159.195z M197.809,4.701h4.741v16.258h4.742V4.701h4.742
			v-4.742h-14.226V4.701L197.809,4.701z M218.131,20.959h4.742v-21h-4.742V20.959z M184.938-0.042l-9.481,21h4.739l1.354-3.387h8.13
			l1.354,3.387h4.741l-9.483-21H184.938z M183.243,13.507l2.37-4.742l2.371,4.742H183.243z M239.471-0.042
			c-5.8,0-10.5,4.701-10.5,10.5s4.7,10.5,10.5,10.5c5.799,0,10.5-4.702,10.5-10.5S245.27-0.042,239.471-0.042z M239.471,16.216
			c-3.181,0-5.759-2.578-5.759-5.758S236.29,4.7,239.471,4.7c3.18,0,5.758,2.578,5.758,5.758S242.648,16.216,239.471,16.216z
			 M269.615-0.042v11.178L257.422-0.042h-1.355v21h4.742V9.782l12.193,11.177h1.355v-21L269.615-0.042L269.615-0.042z M23.71-0.042
			l-6.774,6.774L21,10.797l3.896-3.896l3.556,3.557l-10.5,10.5h6.775l9.822-9.823V9.782l-9.822-9.823L23.71-0.042L23.71-0.042z
			 M9.653,14.015l-3.556-3.557l10.5-10.5H9.823L0,9.782v1.354l9.823,9.823h1.016l6.774-6.774l-4.064-4.063L9.653,14.015z"/>
	</g>
</g>
<g enable-background="new    ">
	<path fill="#FFFFFF" d="M144.554,33.545c-1.209,0-2.253-0.394-3.131-1.181l0.959-1.149c0.724,0.598,1.458,0.896,2.203,0.896
		c0.33,0,0.59-0.062,0.78-0.185c0.189-0.123,0.284-0.293,0.284-0.512v-0.021c0-0.211-0.099-0.381-0.295-0.512
		c-0.197-0.13-0.594-0.271-1.191-0.427c-0.422-0.105-0.763-0.209-1.022-0.311c-0.26-0.103-0.508-0.237-0.743-0.406
		s-0.407-0.378-0.517-0.627c-0.108-0.249-0.163-0.554-0.163-0.912V28.18c0-0.668,0.24-1.206,0.722-1.613s1.102-0.611,1.86-0.611
		c1.048,0,1.961,0.312,2.741,0.938l-0.843,1.223c-0.696-0.485-1.336-0.728-1.919-0.728c-0.303,0-0.536,0.06-0.701,0.179
		c-0.165,0.12-0.248,0.274-0.248,0.464v0.021c0,0.239,0.103,0.418,0.306,0.538c0.204,0.119,0.633,0.263,1.286,0.432
		c0.802,0.211,1.392,0.479,1.771,0.807c0.379,0.327,0.569,0.796,0.569,1.407v0.021c0,0.717-0.248,1.277-0.743,1.681
		C146.023,33.343,145.368,33.545,144.554,33.545z"/>
	<path fill="#FFFFFF" d="M150.214,33.545c-0.556,0-1.018-0.153-1.387-0.459c-0.368-0.306-0.553-0.729-0.553-1.27v-0.021
		c0-0.598,0.205-1.047,0.616-1.35c0.411-0.302,0.965-0.453,1.66-0.453c0.471,0,0.932,0.077,1.381,0.232V30.13
		c0-0.689-0.404-1.033-1.212-1.033c-0.485,0-1.005,0.102-1.561,0.306l-0.4-1.223c0.688-0.303,1.42-0.454,2.192-0.454
		c0.851,0,1.486,0.211,1.908,0.633c0.407,0.408,0.611,1.009,0.611,1.803v3.278h-1.55v-0.611
		C151.492,33.306,150.924,33.545,150.214,33.545z M150.698,32.438c0.373,0,0.675-0.094,0.907-0.28
		c0.231-0.186,0.348-0.423,0.348-0.711v-0.285c-0.303-0.14-0.644-0.21-1.022-0.21c-0.345,0-0.615,0.066-0.812,0.2
		c-0.197,0.133-0.296,0.326-0.296,0.579v0.021c0,0.211,0.081,0.378,0.243,0.501C150.228,32.377,150.438,32.438,150.698,32.438z"/>
	<path fill="#FFFFFF" d="M154.958,33.439v-5.65h1.603v0.802c0.471-0.604,1.025-0.907,1.665-0.907c0.752,0,1.283,0.299,1.592,0.896
		c0.513-0.598,1.132-0.896,1.855-0.896c0.604,0,1.073,0.178,1.407,0.532c0.334,0.355,0.501,0.87,0.501,1.545v3.679h-1.603v-3.152
		c0-0.766-0.312-1.148-0.938-1.148c-0.302,0-0.539,0.099-0.711,0.295c-0.173,0.197-0.259,0.481-0.259,0.854v3.152h-1.602v-3.152
		c0-0.766-0.313-1.148-0.938-1.148c-0.303,0-0.539,0.099-0.712,0.295c-0.172,0.197-0.258,0.481-0.258,0.854v3.152H154.958z"/>
	<path fill="#FFFFFF" d="M167.755,33.566c-0.857,0-1.563-0.272-2.119-0.817c-0.555-0.545-0.833-1.245-0.833-2.104v-0.021
		c0-0.822,0.264-1.519,0.791-2.087c0.527-0.569,1.194-0.854,2.003-0.854c0.893,0,1.574,0.295,2.045,0.886
		c0.471,0.59,0.706,1.317,0.706,2.182c0,0.085-0.007,0.226-0.021,0.422h-3.933c0.077,0.358,0.235,0.633,0.475,0.822
		s0.541,0.285,0.906,0.285c0.499,0,0.956-0.193,1.371-0.58l0.917,0.812C169.494,33.215,168.725,33.566,167.755,33.566z
		 M166.374,30.172h2.414c-0.05-0.365-0.178-0.657-0.385-0.875c-0.208-0.218-0.477-0.327-0.807-0.327
		c-0.323,0-0.592,0.107-0.807,0.321C166.576,29.506,166.438,29.799,166.374,30.172z"/>
	<path fill="#FFFFFF" d="M171.645,33.439v-5.65h1.603v0.802c0.471-0.604,1.022-0.907,1.655-0.907c0.604,0,1.075,0.187,1.412,0.559
		c0.337,0.373,0.506,0.886,0.506,1.539v3.658h-1.603v-3.152c0-0.372-0.084-0.656-0.253-0.854c-0.168-0.196-0.407-0.295-0.717-0.295
		c-0.309,0-0.553,0.099-0.732,0.295c-0.179,0.197-0.269,0.481-0.269,0.854v3.152H171.645z"/>
	<path fill="#FFFFFF" d="M181.585,33.439v-7.695h1.603v4.101l1.876-2.056h1.919l-2.15,2.225l2.224,3.426h-1.834l-1.476-2.309
		l-0.559,0.59v1.719H181.585z"/>
	<path fill="#FFFFFF" d="M192.627,32.712c-0.587,0.569-1.316,0.854-2.188,0.854s-1.597-0.283-2.177-0.849
		c-0.58-0.566-0.87-1.257-0.87-2.072v-0.021c0-0.822,0.294-1.519,0.881-2.087c0.586-0.569,1.315-0.854,2.188-0.854
		c0.871,0,1.597,0.283,2.177,0.849c0.579,0.566,0.869,1.257,0.869,2.071v0.021C193.507,31.447,193.214,32.143,192.627,32.712z
		 M190.461,32.185c0.442,0,0.797-0.147,1.064-0.442c0.267-0.295,0.4-0.66,0.4-1.097v-0.021c0-0.429-0.139-0.796-0.416-1.102
		c-0.278-0.306-0.635-0.459-1.07-0.459c-0.442,0-0.798,0.147-1.064,0.443c-0.268,0.295-0.4,0.66-0.4,1.096v0.021
		c0,0.429,0.139,0.796,0.416,1.102S190.024,32.185,190.461,32.185z"/>
	<path fill="#FFFFFF" d="M194.772,33.439v-5.65h1.603v0.802c0.471-0.604,1.025-0.907,1.665-0.907c0.752,0,1.283,0.299,1.592,0.896
		c0.513-0.598,1.132-0.896,1.855-0.896c0.604,0,1.073,0.178,1.407,0.532c0.334,0.355,0.501,0.87,0.501,1.545v3.679h-1.603v-3.152
		c0-0.766-0.312-1.148-0.938-1.148c-0.302,0-0.539,0.099-0.711,0.295c-0.173,0.197-0.259,0.481-0.259,0.854v3.152h-1.602v-3.152
		c0-0.766-0.313-1.148-0.938-1.148c-0.303,0-0.539,0.099-0.712,0.295c-0.172,0.197-0.258,0.481-0.258,0.854v3.152H194.772z"/>
	<path fill="#FFFFFF" d="M207.569,33.566c-0.857,0-1.563-0.272-2.119-0.817c-0.555-0.545-0.833-1.245-0.833-2.104v-0.021
		c0-0.822,0.264-1.519,0.791-2.087c0.527-0.569,1.194-0.854,2.003-0.854c0.893,0,1.574,0.295,2.045,0.886
		c0.471,0.59,0.706,1.317,0.706,2.182c0,0.085-0.007,0.226-0.021,0.422h-3.933c0.077,0.358,0.235,0.633,0.475,0.822
		s0.541,0.285,0.906,0.285c0.499,0,0.956-0.193,1.371-0.58l0.917,0.812C209.309,33.215,208.539,33.566,207.569,33.566z
		 M206.188,30.172h2.414c-0.05-0.365-0.178-0.657-0.385-0.875c-0.208-0.218-0.477-0.327-0.807-0.327
		c-0.323,0-0.592,0.107-0.807,0.321C206.391,29.506,206.252,29.799,206.188,30.172z"/>
	<path fill="#FFFFFF" d="M211.459,33.439v-5.65h1.603v0.802c0.471-0.604,1.022-0.907,1.655-0.907c0.604,0,1.075,0.187,1.412,0.559
		c0.337,0.373,0.506,0.886,0.506,1.539v3.658h-1.603v-3.152c0-0.372-0.084-0.656-0.253-0.854c-0.168-0.196-0.407-0.295-0.717-0.295
		c-0.309,0-0.553,0.099-0.732,0.295c-0.179,0.197-0.269,0.481-0.269,0.854v3.152H211.459z"/>
	<path fill="#FFFFFF" d="M222.675,33.481l-1.739-5.692h1.623l0.907,3.426l1.064-3.446h1.381l1.075,3.457l0.928-3.437h1.592
		l-1.761,5.692h-1.444l-1.085-3.468l-1.107,3.468H222.675z"/>
	<path fill="#FFFFFF" d="M232.995,33.566c-0.857,0-1.563-0.272-2.119-0.817c-0.555-0.545-0.833-1.245-0.833-2.104v-0.021
		c0-0.822,0.264-1.519,0.791-2.087c0.527-0.569,1.194-0.854,2.003-0.854c0.893,0,1.574,0.295,2.045,0.886
		c0.471,0.59,0.706,1.317,0.706,2.182c0,0.085-0.007,0.226-0.021,0.422h-3.933c0.077,0.358,0.235,0.633,0.475,0.822
		s0.541,0.285,0.906,0.285c0.499,0,0.956-0.193,1.371-0.58l0.917,0.812C234.734,33.215,233.965,33.566,232.995,33.566z
		 M231.614,30.172h2.414c-0.05-0.365-0.178-0.657-0.385-0.875c-0.208-0.218-0.477-0.327-0.807-0.327
		c-0.323,0-0.592,0.107-0.807,0.321C231.816,29.506,231.678,29.799,231.614,30.172z"/>
	<path fill="#FFFFFF" d="M241.871,33.481l-2.225-5.692h1.697l1.265,3.784l1.275-3.784h1.666l-2.225,5.692H241.871z"/>
	<path fill="#FFFFFF" d="M248.944,33.566c-0.857,0-1.563-0.272-2.119-0.817c-0.555-0.545-0.833-1.245-0.833-2.104v-0.021
		c0-0.822,0.264-1.519,0.791-2.087c0.527-0.569,1.194-0.854,2.003-0.854c0.893,0,1.574,0.295,2.045,0.886
		c0.471,0.59,0.706,1.317,0.706,2.182c0,0.085-0.007,0.226-0.021,0.422h-3.933c0.077,0.358,0.235,0.633,0.475,0.822
		s0.541,0.285,0.906,0.285c0.499,0,0.956-0.193,1.371-0.58l0.917,0.812C250.684,33.215,249.914,33.566,248.944,33.566z
		 M247.563,30.172h2.414c-0.05-0.365-0.178-0.657-0.385-0.875c-0.208-0.218-0.477-0.327-0.807-0.327
		c-0.323,0-0.592,0.107-0.807,0.321C247.766,29.506,247.627,29.799,247.563,30.172z"/>
	<path fill="#FFFFFF" d="M252.834,33.439v-5.65h1.603v1.139c0.365-0.864,0.966-1.279,1.803-1.244v1.677h-0.085
		c-0.548,0-0.972,0.167-1.27,0.5c-0.299,0.334-0.448,0.831-0.448,1.492v2.087H252.834z"/>
	<path fill="#FFFFFF" d="M259.56,33.545c-0.703,0-1.308-0.262-1.813-0.785s-0.759-1.235-0.759-2.135v-0.021
		c0-0.899,0.251-1.61,0.754-2.135c0.502-0.523,1.108-0.785,1.818-0.785c0.702,0,1.289,0.281,1.76,0.844v-2.783h1.603v7.695h-1.603
		v-0.812C260.87,33.239,260.283,33.545,259.56,33.545z M258.99,31.747c0.267,0.292,0.594,0.438,0.98,0.438
		c0.386,0,0.711-0.146,0.975-0.438c0.264-0.291,0.396-0.665,0.396-1.122v-0.021c0-0.456-0.132-0.831-0.396-1.122
		c-0.264-0.292-0.589-0.438-0.975-0.438c-0.387,0-0.714,0.144-0.98,0.432c-0.268,0.288-0.4,0.664-0.4,1.128v0.021
		C258.59,31.082,258.723,31.456,258.99,31.747z"/>
	<path fill="#FFFFFF" d="M267.139,33.566c-0.857,0-1.563-0.272-2.119-0.817c-0.555-0.545-0.833-1.245-0.833-2.104v-0.021
		c0-0.822,0.264-1.519,0.791-2.087c0.527-0.569,1.194-0.854,2.003-0.854c0.893,0,1.574,0.295,2.045,0.886
		c0.471,0.59,0.706,1.317,0.706,2.182c0,0.085-0.007,0.226-0.021,0.422h-3.933c0.077,0.358,0.235,0.633,0.475,0.822
		s0.541,0.285,0.906,0.285c0.499,0,0.956-0.193,1.371-0.58l0.917,0.812C268.878,33.215,268.108,33.566,267.139,33.566z
		 M265.758,30.172h2.414c-0.05-0.365-0.178-0.657-0.385-0.875c-0.208-0.218-0.477-0.327-0.807-0.327
		c-0.323,0-0.592,0.107-0.807,0.321C265.96,29.506,265.821,29.799,265.758,30.172z"/>
	<path fill="#FFFFFF" d="M271.028,33.439v-5.65h1.603v1.139c0.365-0.864,0.966-1.279,1.803-1.244v1.677h-0.085
		c-0.548,0-0.972,0.167-1.27,0.5c-0.299,0.334-0.448,0.831-0.448,1.492v2.087H271.028z"/>
</g>
</svg>
