<?xml version="1.0" encoding="utf-8"?>
<!-- Generator: Adobe Illustrator 15.0.0, SVG Export Plug-In . SVG Version: 6.00 Build 0)  -->
<!DOCTYPE svg PUBLIC "-//W3C//DTD SVG 1.1//EN" "http://www.w3.org/Graphics/SVG/1.1/DTD/svg11.dtd">
<svg version="1.1" id="Layer_5" xmlns="http://www.w3.org/2000/svg" xmlns:xlink="http://www.w3.org/1999/xlink" x="0px" y="0px"
	 width="200px" height="200px" viewBox="0 0 200 200" enable-background="new 0 0 200 200" xml:space="preserve">
<g>
	<path fill="#574A46" d="M90.713,92.643c0.377,0.455,0.879,0.824,1.523,1.059c0.645,0.284,1.458,0.41,2.419,0.41
		c0.979,0,1.791-0.125,2.433-0.41c0.637-0.235,1.13-0.604,1.533-1.059c0.358-0.464,0.643-1.016,0.778-1.652
		c0.161-0.636,0.229-1.347,0.229-2.132c0-0.782-0.067-1.485-0.229-2.13c-0.136-0.638-0.42-1.172-0.778-1.631
		c-0.403-0.442-0.896-0.792-1.533-1.056c-0.642-0.243-1.453-0.36-2.433-0.36c-0.96,0-1.774,0.117-2.419,0.36
		c-0.645,0.264-1.146,0.614-1.523,1.056c-0.375,0.459-0.645,0.993-0.775,1.631c-0.162,0.645-0.221,1.348-0.221,2.13
		c0,0.785,0.059,1.496,0.221,2.132C90.068,91.627,90.337,92.178,90.713,92.643z"/>
	<path fill="#574A46" d="M113.887,92.643c0.352,0.455,0.862,0.824,1.523,1.059c0.617,0.284,1.42,0.41,2.414,0.41
		c0.984,0,1.788-0.125,2.391-0.41c0.675-0.235,1.172-0.604,1.537-1.059c0.394-0.464,0.678-1.016,0.807-1.652
		c0.146-0.636,0.234-1.347,0.234-2.132c0-0.782-0.088-1.485-0.234-2.13c-0.129-0.638-0.413-1.172-0.807-1.631
		c-0.365-0.442-0.862-0.792-1.537-1.056c-0.603-0.243-1.406-0.36-2.391-0.36c-0.994,0-1.797,0.117-2.414,0.36
		c-0.661,0.264-1.172,0.614-1.523,1.056c-0.38,0.459-0.665,0.993-0.82,1.631c-0.117,0.645-0.206,1.348-0.206,2.13
		c0,0.785,0.089,1.496,0.206,2.132C113.222,91.627,113.507,92.178,113.887,92.643z"/>
	<path fill="#574A46" d="M79.502,112.946c-0.391-0.488-0.918-0.869-1.589-1.153c-0.677-0.25-1.497-0.367-2.53-0.367
		c-1.018,0-1.838,0.117-2.512,0.367c-0.674,0.284-1.201,0.665-1.594,1.153c-0.381,0.472-0.662,1.048-0.832,1.684
		c-0.157,0.663-0.24,1.41-0.24,2.205c0,0.802,0.083,1.541,0.24,2.208c0.17,0.629,0.45,1.172,0.832,1.641
		c0.393,0.469,0.92,0.82,1.594,1.055s1.494,0.352,2.512,0.352c1.033,0,1.854-0.117,2.53-0.352c0.671-0.234,1.198-0.586,1.589-1.055
		c0.392-0.469,0.664-1.012,0.837-1.641c0.147-0.667,0.237-1.406,0.237-2.208c0-0.795-0.09-1.542-0.237-2.205
		C80.166,113.994,79.894,113.418,79.502,112.946z"/>
	<path fill="#574A46" d="M100,39.997c-33.134,0-60,26.869-60,60.001c0,33.12,26.865,60.006,60,60.006c33.117,0,60-26.886,60-60.006
		C160,66.865,133.116,39.997,100,39.997z M130.294,95.4v-0.042V75.127v-0.878c0-0.222,0.116-0.411,0.255-0.575
		c0.21-0.148,0.402-0.24,0.662-0.24h3.771c0.251,0,0.469,0.092,0.656,0.24c0.163,0.165,0.266,0.354,0.266,0.575v2.555v14.729
		c0,1.363,0.005,1.139,0.005,1.641h0.472h0.014c0.23,0.02,0.463,0.117,0.621,0.262c0.192,0.148,0.273,0.324,0.273,0.558v3.359
		c0,0.233-0.081,0.438-0.273,0.598c-0.158,0.151-0.393,0.24-0.627,0.24h-1.524h-0.007h-3.509c-0.312,0-0.553-0.096-0.729-0.271
		c-0.208-0.176-0.324-0.4-0.324-0.645V95.4z M107.758,84.678c0.387-1.172,0.984-2.168,1.856-2.971
		c0.874-0.793,1.935-1.418,3.313-1.833c1.311-0.411,2.951-0.605,4.896-0.605c1.922,0,3.557,0.195,4.881,0.605
		c1.377,0.416,2.445,1.041,3.327,1.833c0.862,0.803,1.454,1.799,1.859,2.971c0.407,1.177,0.575,2.525,0.575,4.042
		c0,1.526-0.168,2.89-0.575,4.075c-0.405,1.19-0.997,2.176-1.859,2.967c-0.882,0.809-1.95,1.413-3.327,1.828
		c-1.324,0.417-2.959,0.622-4.881,0.622c-1.945,0-3.586-0.205-4.896-0.622c-1.379-0.415-2.439-1.019-3.313-1.828
		c-0.872-0.792-1.47-1.777-1.856-2.967c-0.414-1.185-0.575-2.549-0.575-4.075C107.183,87.203,107.344,85.855,107.758,84.678z
		 M84.591,84.678c0.38-1.172,1.019-2.168,1.859-2.971c0.864-0.793,1.968-1.418,3.31-1.833c1.339-0.411,2.973-0.605,4.895-0.605
		c1.917,0,3.558,0.195,4.905,0.605c1.327,0.416,2.457,1.041,3.311,1.833c0.835,0.803,1.483,1.799,1.875,2.971
		c0.352,1.177,0.586,2.525,0.586,4.042c0,1.526-0.234,2.89-0.586,4.075c-0.392,1.19-1.04,2.176-1.875,2.967
		c-0.854,0.809-1.983,1.413-3.311,1.828c-1.348,0.417-2.988,0.622-4.905,0.622c-1.922,0-3.556-0.205-4.895-0.622
		c-1.342-0.415-2.446-1.019-3.31-1.828c-0.84-0.792-1.479-1.777-1.859-2.967c-0.382-1.185-0.583-2.549-0.583-4.075
		C84.008,87.203,84.209,85.855,84.591,84.678z M68.606,80.045c1.423-0.531,3.297-0.817,5.571-0.817c1.014,0,1.912,0.059,2.664,0.117
		c0.764,0.077,1.467,0.216,2.122,0.396c0.643,0.181,1.262,0.421,1.848,0.715c0.575,0.295,0.938,0.484,1.617,0.94
		c0.023,0.027,1.059,0.701,0.53,1.348c-0.097,0.129-0.097,0.141-0.338,0.454l-1.458,1.889c-0.166,0.198-0.352,0.311-0.57,0.344
		c-0.205,0.007-0.426-0.055-0.661-0.227c-0.41-0.287-2.08-1.658-5.754-1.658c-2.661,0-6.236,1.596-6.236,5.198
		c0,3.668,3.377,5.199,6.236,5.199c3.915,0,5.344-1.373,5.754-1.648c0.234-0.176,0.456-0.234,0.661-0.234
		c0.218,0.028,0.404,0.142,0.57,0.352l1.458,1.877c0.242,0.316,0.242,0.325,0.338,0.452c0.528,0.659-0.507,1.326-0.53,1.356
		c-0.68,0.451-1.042,0.651-1.617,0.943c-0.586,0.293-1.205,0.528-1.848,0.706c-0.655,0.181-1.358,0.318-2.122,0.408
		c-0.751,0.058-1.65,0.11-2.664,0.11c-2.274,0-4.148-0.287-5.571-0.813c-1.448-0.528-6.077-2.858-6.077-8.906
		C62.529,82.744,67.158,80.577,68.606,80.045z M85.908,120.923c-0.391,1.271-1.021,2.269-1.911,3.102
		c-0.881,0.832-2.015,1.464-3.421,1.889c-1.401,0.411-3.085,0.63-5.072,0.63c-1.191,0-2.252-0.117-3.229-0.32
		c-0.958-0.2-1.779-0.467-2.54-0.734l-0.032,0.586c0,0.217-0.085,0.352-0.261,0.352c-0.176,0.057-4.688,0.089-4.688,0.089
		c-0.262,0-0.491-0.089-0.678-0.247c-0.2-0.189-0.278-0.368-0.278-0.617l0.017-24.144c0-0.243,0.069-0.44,0.253-0.628
		c0.177-0.146,0.393-0.234,0.662-0.234h3.95h0.099c0.253,0,0.487,0.089,0.663,0.234c0.176,0.156,0.277,0.352,0.293,0.586v0.059
		c0,0.038,0,0.059,0,0.059v1.992v0.001v4.101c0.743-0.278,1.566-0.479,2.486-0.649c0.926-0.171,1.976-0.224,3.16-0.224
		c1.984,0,3.697,0.211,5.118,0.639c1.423,0.458,2.558,1.055,3.439,1.905c0.887,0.872,1.542,1.894,1.95,3.134
		c0.417,1.214,0.604,2.63,0.604,4.219C86.494,118.313,86.318,119.737,85.908,120.923z M95.537,125.566
		c0,0.253-0.078,0.433-0.253,0.625c-0.18,0.146-0.41,0.234-0.677,0.234h-1.608h-0.003h-3.688c-0.293,0-0.53-0.111-0.762-0.264
		c-0.191-0.205-0.293-0.439-0.293-0.674v-1.992v-0.001v-21.21v-0.938c0-0.221,0.078-0.394,0.259-0.58
		c0.185-0.152,0.393-0.24,0.672-0.24h3.974c0.251,0,0.485,0.088,0.661,0.24c0.176,0.186,0.265,0.359,0.265,0.58v0.818v17.306
		c0,1.446,0.006,1.207,0.006,1.699h0.491h0.059c0.234,0.031,0.465,0.102,0.645,0.291c0.176,0.159,0.253,0.349,0.253,0.569V125.566z
		 M115.626,108.218v2.856v5.872c0,1.684-0.14,3.141-0.431,4.323c-0.254,1.179-0.723,2.181-1.426,2.93
		c-0.674,0.771-1.622,1.312-2.812,1.665c-1.172,0.368-2.7,0.562-4.57,0.562c-1.875,0-3.398-0.193-4.588-0.562
		c-1.242-0.354-2.18-0.895-2.883-1.665c-0.697-0.749-1.172-1.744-1.449-2.93c-0.259-1.172-0.402-2.594-0.402-4.283v-5.912v-2.109
		v-1.298c0-0.226,0.094-0.46,0.27-0.593c0.176-0.206,0.409-0.271,0.654-0.271h0.537h2.603h0.423c0.266,0,0.49,0.065,0.652,0.271
		c0.199,0.133,0.316,0.367,0.316,0.593v3.407v6.023c0,0.656-0.006,1.307,0,1.87c0.066,0.562,0.234,1.057,0.469,1.481
		c0.234,0.379,0.647,0.703,1.172,0.938c0.557,0.234,1.289,0.352,2.227,0.352c0.962,0,1.726-0.117,2.227-0.352
		c0.549-0.234,0.938-0.571,1.172-0.943c0.244-0.456,0.414-0.932,0.469-1.518c0.024-0.571,0.061-1.172,0.061-1.874v-5.978v-3.407
		c0-0.226,0.085-0.46,0.291-0.593c0.138-0.206,0.355-0.271,0.638-0.271h0.484h1.673h1.303c0.238,0,0.473,0.065,0.625,0.271
		c0.199,0.133,0.298,0.367,0.298,0.593V108.218z M137.441,118.457h-11.099c-0.501,0-0.501-0.383-0.501-0.383v-2.886
		c0,0,0.033-0.47,0.501-0.47h5.832c-0.006-0.515-0.115-1.037-0.214-1.494c-0.114-0.454-0.292-0.861-0.613-1.188
		c-0.258-0.306-0.703-0.586-1.207-0.745c-0.55-0.218-1.253-0.314-2.188-0.314c-0.874,0-1.644,0.097-2.229,0.293
		c-0.586,0.155-1.083,0.4-1.503,0.741c-0.372,0.333-0.68,0.703-0.857,1.172c-0.218,0.469-0.335,0.956-0.441,1.535
		c0,0-0.228,2.098,0,3.738c0.106,0.586,0.224,1.097,0.458,1.559c0.234,0.475,0.519,0.902,0.938,1.238
		c0.376,0.33,0.926,0.602,1.523,0.749c0.636,0.204,1.406,0.283,2.345,0.283c0.819,0,1.52-0.062,2.04-0.105
		c0.538-0.091,1.007-0.208,1.452-0.325c0.374-0.136,0.762-0.342,1.096-0.516c0.334-0.188,0.699-0.422,1.127-0.68
		c0.215-0.204,0.426-0.245,0.63-0.217c0.218,0.006,0.433,0.123,0.568,0.328l1.411,1.856c0.259,0.282,0.259,0.282,0.348,0.404
		c0.542,0.698-0.469,1.335-0.493,1.366c-0.679,0.439-1.031,0.621-1.616,0.951c-0.587,0.256-1.172,0.49-1.813,0.7
		c-0.648,0.142-1.352,0.274-2.078,0.376c-0.773,0.068-1.617,0.117-2.671,0.117c-2.228,0-4.087-0.27-5.502-0.82
		c-1.413-0.494-2.487-1.211-3.288-2.109c-0.813-0.93-1.312-1.971-1.641-3.164c-0.259-1.172-0.422-2.461-0.422-3.785
		c0-1.336,0.163-2.564,0.422-3.77c0.328-1.2,0.844-2.242,1.641-3.121c0.82-0.926,1.896-1.629,3.309-2.177
		c1.408-0.507,3.254-0.794,5.481-0.794c1.522,0,2.812,0.161,3.866,0.404c1.056,0.304,1.97,0.703,2.661,1.203
		c0.683,0.55,1.207,1.141,1.596,1.844c0.412,0.703,0.665,1.523,0.867,2.383c0.15,0.898,0.267,1.83,0.267,2.773
		C137.466,116.413,137.466,117.412,137.441,118.457z"/>
</g>
</svg>
