<?xml version="1.0" encoding="utf-8"?>
<!-- Generator: Adobe Illustrator 15.0.0, SVG Export Plug-In . SVG Version: 6.00 Build 0)  -->
<!DOCTYPE svg PUBLIC "-//W3C//DTD SVG 1.1//EN" "http://www.w3.org/Graphics/SVG/1.1/DTD/svg11.dtd">
<svg version="1.1" xmlns="http://www.w3.org/2000/svg" xmlns:xlink="http://www.w3.org/1999/xlink" x="0px" y="0px" width="200px"
	 height="200px" viewBox="0 0 200 200" enable-background="new 0 0 200 200" xml:space="preserve">
<g id="Layer_1" display="none">
	<g display="inline">
		<path fill="#574A46" d="M200,97.967V94.45h-4.368v-5.468l-0.146,0.045l-4.103,1.255l-0.081,0.024v4.144h-6.476v-2.308
			c0-1.075,0.24-1.897,0.715-2.446c0.47-0.542,1.143-0.817,2.001-0.817c0.616,0,1.255,0.146,1.897,0.432l0.161,0.072v-3.705
			l-0.075-0.028c-0.6-0.215-1.416-0.324-2.427-0.324c-1.273,0-2.432,0.277-3.44,0.827c-1.011,0.55-1.805,1.335-2.361,2.334
			c-0.555,0.997-0.836,2.149-0.836,3.424v2.538h-3.042v3.518h3.042v14.816h4.365V97.967h6.476v9.416
			c0,3.879,1.829,5.844,5.437,5.844c0.594,0,1.217-0.07,1.854-0.205c0.648-0.141,1.09-0.279,1.35-0.43l0.058-0.033v-3.549
			l-0.178,0.117c-0.236,0.158-0.532,0.287-0.878,0.383c-0.348,0.098-0.638,0.146-0.862,0.146c-0.846,0-1.471-0.229-1.858-0.678
			c-0.393-0.453-0.592-1.246-0.592-2.355v-8.656H200L200,97.967z M167.669,109.656c-1.585,0-2.834-0.525-3.715-1.561
			c-0.886-1.041-1.335-2.523-1.335-4.408c0-1.943,0.449-3.465,1.335-4.524c0.882-1.052,2.119-1.585,3.679-1.585
			c1.515,0,2.72,0.51,3.582,1.516c0.868,1.012,1.309,2.521,1.309,4.488c0,1.99-0.414,3.52-1.23,4.543
			C170.481,109.141,169.263,109.656,167.669,109.656L167.669,109.656z M167.863,94.008c-3.023,0-5.425,0.885-7.138,2.633
			c-1.711,1.747-2.578,4.166-2.578,7.187c0,2.871,0.847,5.18,2.518,6.863c1.67,1.682,3.943,2.535,6.756,2.535
			c2.931,0,5.284-0.898,6.996-2.67c1.711-1.77,2.578-4.166,2.578-7.117c0-2.916-0.813-5.242-2.419-6.913
			C172.97,94.855,170.711,94.008,167.863,94.008L167.863,94.008z M151.108,94.008c-2.057,0-3.758,0.526-5.058,1.563
			c-1.308,1.043-1.971,2.412-1.971,4.068c0,0.859,0.144,1.625,0.425,2.273c0.283,0.65,0.722,1.223,1.305,1.705
			c0.578,0.477,1.471,0.975,2.654,1.484c0.994,0.408,1.735,0.756,2.207,1.027c0.46,0.268,0.787,0.537,0.972,0.799
			c0.18,0.256,0.271,0.605,0.271,1.039c0,1.23-0.922,1.83-2.82,1.83c-0.704,0-1.508-0.146-2.388-0.436
			c-0.88-0.291-1.702-0.705-2.444-1.24l-0.181-0.129v4.203l0.066,0.031c0.618,0.285,1.396,0.525,2.314,0.715
			c0.916,0.189,1.749,0.285,2.473,0.285c2.231,0,4.028-0.529,5.34-1.572c1.319-1.051,1.988-2.451,1.988-4.164
			c0-1.236-0.359-2.297-1.069-3.15c-0.705-0.848-1.928-1.627-3.635-2.314c-1.359-0.545-2.23-0.998-2.589-1.346
			c-0.347-0.335-0.522-0.811-0.522-1.412c0-0.533,0.217-0.96,0.663-1.307c0.448-0.347,1.073-0.524,1.857-0.524
			c0.728,0,1.472,0.115,2.212,0.34c0.74,0.226,1.39,0.527,1.932,0.896l0.179,0.121v-3.987l-0.068-0.029
			c-0.501-0.214-1.16-0.397-1.962-0.547C152.461,94.083,151.737,94.008,151.108,94.008L151.108,94.008z M132.697,109.656
			c-1.584,0-2.834-0.525-3.714-1.561c-0.887-1.041-1.334-2.523-1.334-4.408c0-1.943,0.448-3.465,1.335-4.524
			c0.88-1.052,2.117-1.585,3.679-1.585c1.513,0,2.718,0.51,3.581,1.516c0.868,1.012,1.308,2.521,1.308,4.488
			c0,1.99-0.414,3.52-1.23,4.543C135.511,109.141,134.292,109.656,132.697,109.656L132.697,109.656z M132.893,94.008
			c-3.024,0-5.426,0.885-7.137,2.633c-1.711,1.747-2.579,4.166-2.579,7.187c0,2.873,0.847,5.18,2.518,6.863
			c1.671,1.682,3.943,2.535,6.756,2.535c2.93,0,5.284-0.898,6.996-2.67c1.711-1.77,2.578-4.166,2.578-7.117
			c0-2.916-0.813-5.242-2.42-6.913C137.999,94.855,135.74,94.008,132.893,94.008L132.893,94.008z M116.549,97.625V94.45h-4.313
			v18.333h4.313v-9.379c0-1.594,0.361-2.904,1.075-3.894c0.704-0.977,1.643-1.473,2.789-1.473c0.389,0,0.824,0.064,1.297,0.19
			c0.468,0.126,0.806,0.263,1.006,0.407l0.181,0.131v-4.348l-0.069-0.03c-0.402-0.171-0.97-0.257-1.689-0.257
			c-1.083,0-2.053,0.348-2.884,1.033c-0.729,0.604-1.257,1.43-1.659,2.46H116.549L116.549,97.625z M104.513,94.008
			c-1.979,0-3.744,0.424-5.245,1.26c-1.504,0.838-2.667,2.035-3.459,3.557c-0.787,1.52-1.188,3.292-1.188,5.269
			c0,1.732,0.388,3.322,1.154,4.725c0.768,1.402,1.854,2.5,3.228,3.262c1.373,0.762,2.958,1.146,4.715,1.146
			c2.05,0,3.799-0.41,5.202-1.219l0.057-0.031v-3.951l-0.181,0.131c-0.636,0.465-1.346,0.834-2.11,1.1
			c-0.763,0.266-1.457,0.4-2.066,0.4c-1.692,0-3.051-0.529-4.038-1.574c-0.988-1.045-1.489-2.512-1.489-4.359
			c0-1.859,0.522-3.365,1.553-4.475c1.027-1.107,2.388-1.669,4.045-1.669c1.417,0,2.799,0.479,4.105,1.428l0.181,0.131v-4.163
			l-0.058-0.032c-0.492-0.275-1.163-0.503-1.996-0.676C106.094,94.094,105.283,94.008,104.513,94.008L104.513,94.008z M91.65,94.45
			h-4.312v18.333h4.312V94.45L91.65,94.45z M89.538,86.639c-0.709,0-1.329,0.241-1.837,0.72c-0.511,0.48-0.77,1.084-0.77,1.798
			c0,0.702,0.256,1.296,0.762,1.763c0.503,0.466,1.124,0.702,1.846,0.702c0.722,0,1.346-0.236,1.854-0.702
			c0.512-0.468,0.771-1.062,0.771-1.764c0-0.688-0.252-1.287-0.75-1.779C90.916,86.888,90.285,86.639,89.538,86.639L89.538,86.639z
			 M78.777,93.097v19.687h4.402V87.2h-6.092l-7.743,19.003L61.829,87.2h-6.34v25.583h4.136V93.095h0.143l7.934,19.688h3.122
			l7.811-19.687H78.777L78.777,93.097z"/>
		<path fill="#574A46" d="M20.289,98.94H0V78.651h20.289V98.94L20.289,98.94z"/>
		<path fill="#574A46" d="M42.69,98.94H22.401V78.651H42.69V98.94L42.69,98.94z"/>
		<path fill="#574A46" d="M20.289,121.35H0v-20.289h20.289V121.35L20.289,121.35z"/>
		<path fill="#574A46" d="M42.69,121.35H22.401v-20.289H42.69V121.35L42.69,121.35z"/>
	</g>
</g>
<g id="Layer_2">
	<g>
		<g>
			<path fill="#574A46" d="M170.584,51.605h-0.932l-0.923-1.115h-0.3v1.115h-0.752v-3.023h1.141c0.234,0,0.396,0.011,0.541,0.034
				c0.122,0.004,0.241,0.052,0.361,0.12c0.135,0.079,0.225,0.177,0.308,0.274c0.065,0.121,0.081,0.256,0.081,0.416
				c0,0.22-0.035,0.395-0.164,0.534c-0.145,0.143-0.293,0.268-0.487,0.345L170.584,51.605z M169.3,49.484
				c0-0.06-0.015-0.13-0.046-0.181c-0.038-0.044-0.051-0.096-0.135-0.12c-0.053-0.042-0.119-0.05-0.197-0.056
				c-0.08-0.011-0.148-0.019-0.269-0.019h-0.224v0.836h0.188c0.119,0,0.216-0.005,0.304-0.01c0.101-0.023,0.151-0.062,0.221-0.094
				c0.068-0.048,0.073-0.095,0.111-0.146C169.285,49.642,169.3,49.571,169.3,49.484"/>
			<path fill="#574A46" d="M171.913,50.159c0,0.838-0.301,1.543-0.894,2.137c-0.594,0.597-1.299,0.894-2.116,0.894
				c-0.86,0-1.579-0.297-2.173-0.894c-0.594-0.593-0.887-1.299-0.887-2.137c0-0.825,0.293-1.538,0.887-2.124
				c0.594-0.597,1.312-0.894,2.173-0.894c0.817,0,1.522,0.297,2.116,0.894C171.612,48.621,171.913,49.334,171.913,50.159
				 M171.266,50.159c0-0.657-0.262-1.208-0.728-1.682c-0.444-0.457-1.014-0.694-1.635-0.694c-0.67,0-1.226,0.237-1.691,0.694
				c-0.466,0.474-0.675,1.025-0.675,1.682c0,0.66,0.209,1.218,0.675,1.685c0.466,0.463,1.021,0.704,1.691,0.704
				c0.621,0,1.19-0.241,1.635-0.704C171.004,51.376,171.266,50.818,171.266,50.159"/>
			<g>
				<path fill="#574A46" d="M41.107,78.475c0,9.843,2.459,13.374,12.831,13.374c3.845,0,7.052-0.308,9.271-1.543
					c2.179-1.255,3.454-3.386,3.502-7.224h-8.17c-0.09,2.813-1.993,3.098-4.603,3.098c-3.78,0-4.513-1.536-4.513-6.233v-0.198
					h17.285v-1.273c0-10.738-2.913-13.443-12.772-13.443C43.368,65.032,41.107,68.323,41.107,78.475z M53.784,70.725
					c2.993,0,4.607,0.297,4.607,4.41v0.194h-8.966C49.519,71.814,50.231,70.725,53.784,70.725z"/>
				<path fill="#574A46" d="M122.425,70.447c-3.665,0-4.335,1.178-4.47,4.768h9.163v-0.281
					C127.118,70.754,125.42,70.447,122.425,70.447z"/>
				<path fill="#574A46" d="M85.035,86.633c-2.178,0-4.408-0.052-4.494-3h-8.333c0.069,5.805,2.825,7.701,7.907,8.119
					c1.538,0.112,3.217,0.097,4.92,0.097c7.018,0,12.831-1.168,12.831-8.763c0-7.235-3.77-7.754-12.835-7.952
					c-4.479-0.11-4.757-1.048-4.757-2.543c0-1.769,0.206-2.328,4.761-2.328c1.671,0,3.355,0.15,3.722,2.235h7.836v-1.075
					c0-6.301-6.592-6.391-11.559-6.391c-7.426,0-12.827,0.173-12.827,8.524c0,5.241,1.827,7.709,12.827,7.709
					c1.011,0,2.58-0.051,3.502,0.341c0.878,0.379,1.263,1.139,1.263,2.493C89.8,86.39,88.976,86.633,85.035,86.633z"/>
				<path fill="#574A46" d="M171.41,59.521c-3.297-5.457-9.666-9.289-17.107-9.289H45.69c-7.459,0-13.804,3.832-17.124,9.289
					C25.642,64.588,25,72.847,25,78.309c0,5.468,0.642,13.74,3.566,18.798c3.32,5.456,9.665,9.273,17.124,9.273h108.612
					c7.441,0,13.811-3.817,17.107-9.273c2.93-5.059,3.59-13.33,3.59-18.802C175,72.847,174.34,64.588,171.41,59.521z
					 M103.087,101.458H47.079c-4.349-0.012-9.426-2.133-12.065-4.96c-4.168-4.479-5.07-11.501-5.07-18.189
					c0-6.688,0.902-13.713,5.07-18.189c2.64-2.83,7.717-4.951,12.065-4.963h56.008V101.458z M135.25,79.458h-17.279v0.291
					c0,4.711,0.743,6.318,4.604,6.318c2.574,0,4.574-0.286,4.693-3.096h7.981c-0.035,3.749-1.34,5.859-3.431,7.08
					c-2.215,1.22-5.379,1.532-9.244,1.532c-10.327,0-12.736-3.485-12.736-13.299c0-10.107,2.238-13.345,12.736-13.345
					c9.822,0,12.675,2.651,12.675,13.345V79.458z M160.927,71.033h-6.067v20.523h-8.33V71.033h-6.059v-6.001h20.456V71.033z"/>
			</g>
		</g>
		<g>
			<polygon fill="#574A46" points="43.542,126.08 49.422,126.08 49.422,127.313 45.055,127.313 45.055,130.474 49.103,130.474 
				49.103,131.668 45.055,131.668 45.055,134.859 49.732,134.859 49.732,136.107 43.542,136.107 			"/>
			<polygon fill="#574A46" points="54.699,126.08 56.69,126.08 61.447,134.492 61.396,133.26 61.396,126.08 62.942,126.08 
				62.942,136.107 60.817,136.107 56.164,127.838 56.226,128.94 56.226,136.107 54.699,136.107 			"/>
			<path fill="#574A46" d="M67.59,137.684c1.69-0.971,2.051-1.953,2.051-3.741v-7.862h1.539v7.83c0,2.12-0.367,3.809-3.003,4.853
				L67.59,137.684z"/>
			<path fill="#574A46" d="M84.289,131.082c0-2.223-1.222-3.909-3.553-3.909c-2.441,0-3.598,1.687-3.598,3.871
				c0,2.136,1.124,3.966,3.488,3.966C83.178,135.01,84.289,133.313,84.289,131.082 M75.615,131.067c0-3.161,2.082-5.122,5.245-5.122
				c3.351,0,4.967,2.208,4.967,5.16c0,3.098-1.914,5.148-5.23,5.148C77.368,136.254,75.615,134.177,75.615,131.067"/>
			<polygon fill="#574A46" points="91.696,132.447 88.314,126.08 90.049,126.08 92.52,131.133 95.17,126.08 96.837,126.08 
				93.225,132.445 93.225,136.107 91.696,136.107 			"/>
			<path fill="#574A46" d="M104.618,135.634l0.474-1.18c0.812,0.335,1.456,0.486,2.451,0.486c1.17,0,2.212-0.366,2.212-1.468
				c0-2.232-4.849-1.685-4.849-4.98c0-1.744,1.499-2.531,3.152-2.531c1.261,0,1.976,0.247,2.636,0.524l-0.428,1.128
				c-0.654-0.234-1.225-0.43-2.146-0.43c-1.083,0-1.749,0.43-1.749,1.248c0,1.967,4.917,1.779,4.917,4.971
				c0,1.975-1.719,2.852-3.727,2.852C106.078,136.254,105.234,135.961,104.618,135.634"/>
			<path fill="#574A46" d="M120.727,131.422l-1.381-4.32l-1.554,4.32H120.727z M118.383,126.08h2.046l3.521,10.027h-1.61
				l-1.189-3.514h-3.792l-1.376,3.514h-1.549L118.383,126.08z"/>
			<polygon fill="#574A46" points="127.778,126.08 133.989,126.08 133.989,127.313 129.312,127.313 129.312,130.729 
				133.674,130.729 133.674,131.923 129.312,131.923 129.312,136.107 127.778,136.107 			"/>
			<polygon fill="#574A46" points="138.163,126.08 144.036,126.08 144.036,127.313 139.689,127.313 139.689,130.474 
				143.727,130.474 143.727,131.668 139.689,131.668 139.689,134.859 144.375,134.859 144.375,136.107 138.163,136.107 			"/>
			<path fill="#574A46" d="M151.562,131.105c1.533,0,2.493-0.535,2.493-1.915c0-1.391-0.683-1.877-2.14-1.877h-1.6v3.792H151.562z
				 M148.776,126.08h3.446c2.006,0,3.409,0.947,3.409,3.019c0,1.156-0.54,2.192-1.8,2.758l3.121,4.251h-1.915l-2.694-3.899
				c-0.257,0.054-0.578,0.069-0.855,0.069h-1.172v3.83h-1.54V126.08z"/>
			<polygon fill="#574A46" points="45.486,143.923 42.152,143.923 42.152,142.699 50.349,142.699 50.349,143.923 47.009,143.923 
				47.009,152.679 45.486,152.679 			"/>
			<polygon fill="#574A46" points="53.713,142.699 59.594,142.699 59.594,143.893 55.222,143.893 55.222,147.093 59.27,147.093 
				59.27,148.266 55.222,148.266 55.222,151.479 59.904,151.479 59.904,152.679 53.713,152.679 			"/>
			<path fill="#574A46" d="M63.217,147.753c0-3.268,1.839-5.198,5.234-5.198c1.703,0,2.572,0.354,2.947,0.535l-0.406,1.172
				c-0.562-0.181-1.205-0.397-2.523-0.397c-2.004-0.022-3.687,1.064-3.687,3.746c0,2.718,1.75,3.95,3.979,3.95
				c0.947,0,1.72-0.181,2.333-0.354l0.353,1.171c-0.561,0.234-1.386,0.459-2.947,0.459
				C65.099,152.837,63.217,150.824,63.217,147.753"/>
			<polygon fill="#574A46" points="75.127,142.699 76.636,142.699 76.636,147.071 81.772,147.071 81.772,142.699 83.281,142.699 
				83.281,152.679 81.772,152.679 81.772,148.266 76.636,148.266 76.636,152.679 75.127,152.679 			"/>
			<polygon fill="#574A46" points="88.028,142.699 90.029,142.699 94.787,151.063 94.734,149.879 94.734,142.699 96.278,142.699 
				96.278,152.679 94.152,152.679 89.49,144.457 89.562,145.561 89.562,152.679 88.028,152.679 			"/>
			<path fill="#574A46" d="M109.008,147.68c0-2.2-1.212-3.915-3.539-3.915c-2.466,0-3.624,1.715-3.624,3.907
				c0,2.116,1.153,3.965,3.502,3.965C107.886,151.637,109.008,149.893,109.008,147.68 M100.33,147.68
				c0-3.155,2.087-5.125,5.258-5.125c3.326,0,4.964,2.195,4.964,5.125c0,3.106-1.931,5.18-5.226,5.18
				C102.103,152.859,100.33,150.758,100.33,147.68"/>
			<polygon fill="#574A46" points="114.575,142.699 116.108,142.699 116.108,151.441 120.434,151.441 120.434,152.679 
				114.575,152.679 			"/>
			<path fill="#574A46" d="M131.129,147.68c0-2.2-1.179-3.915-3.517-3.915c-2.463,0-3.611,1.715-3.611,3.907
				c0,2.116,1.12,3.965,3.484,3.965C130.032,151.637,131.129,149.893,131.129,147.68 M122.484,147.68
				c0-3.155,2.057-5.125,5.258-5.125c3.326,0,4.956,2.195,4.956,5.125c0,3.106-1.931,5.18-5.233,5.18
				C124.242,152.859,122.484,150.758,122.484,147.68"/>
			<path fill="#574A46" d="M136.047,147.753c0-3.296,1.854-5.198,5.241-5.198c1.691,0,2.428,0.301,2.929,0.535l-0.42,1.172
				c-0.654-0.196-1.217-0.397-2.485-0.397c-1.981,0-3.727,1.034-3.727,3.746c0,2.756,1.812,3.95,3.942,3.95
				c0.602,0,1.027-0.081,1.338-0.143v-3.649h1.548v4.599c-0.97,0.297-1.803,0.47-3.125,0.47
				C138.012,152.837,136.047,150.878,136.047,147.753"/>
			<polygon fill="#574A46" points="150.706,149.067 147.304,142.699 149.038,142.699 151.509,147.753 154.16,142.699 
				155.851,142.699 152.223,149.029 152.223,152.679 150.706,152.679 			"/>
			<path fill="#574A46" d="M161.701,146.101h0.593v-2.439l1.062,1.606h0.011l1.105-1.622v2.455h0.608v-3.407h-0.662l-1.052,1.619
				l-1.038-1.619h-0.627V146.101z M158.812,146.101h0.611v-2.86h1.105v-0.547h-2.786v0.547h1.069V146.101z"/>
		</g>
	</g>
</g>
</svg>
