<?xml version="1.0" encoding="utf-8"?>
<!-- Generator: Adobe Illustrator 15.0.0, SVG Export Plug-In . SVG Version: 6.00 Build 0)  -->
<!DOCTYPE svg PUBLIC "-//W3C//DTD SVG 1.1//EN" "http://www.w3.org/Graphics/SVG/1.1/DTD/svg11.dtd">
<svg version="1.1" id="Layer_10" xmlns="http://www.w3.org/2000/svg" xmlns:xlink="http://www.w3.org/1999/xlink" x="0px" y="0px"
	 width="200px" height="200px" viewBox="0 0 200 200" enable-background="new 0 0 200 200" xml:space="preserve">
<g>
	<g>
		<path fill="#006B6E" d="M170.586,51.601h-0.95l-0.913-1.112h-0.299v1.112h-0.747v-3.018h1.149c0.213,0,0.385,0.009,0.514,0.026
			c0.13,0.016,0.256,0.057,0.381,0.125c0.139,0.078,0.239,0.17,0.302,0.278c0.067,0.109,0.099,0.248,0.099,0.409
			c0,0.22-0.061,0.402-0.187,0.542c-0.125,0.144-0.288,0.256-0.486,0.333L170.586,51.601z M169.297,49.479
			c0-0.063-0.011-0.12-0.037-0.173c-0.028-0.051-0.074-0.094-0.139-0.125c-0.061-0.032-0.126-0.052-0.2-0.061
			c-0.078-0.008-0.168-0.015-0.259-0.015h-0.238v0.848h0.18c0.125,0,0.23-0.009,0.32-0.026c0.092-0.018,0.164-0.046,0.218-0.089
			c0.051-0.037,0.093-0.089,0.118-0.146C169.286,49.634,169.297,49.562,169.297,49.479"/>
		<path fill="#006B6E" d="M171.912,50.163c0,0.835-0.295,1.548-0.888,2.139c-0.59,0.594-1.304,0.891-2.139,0.891
			c-0.836,0-1.548-0.296-2.139-0.891c-0.592-0.591-0.888-1.303-0.888-2.139c0-0.833,0.296-1.545,0.888-2.136
			c0.591-0.595,1.303-0.89,2.139-0.89c0.835,0,1.549,0.295,2.139,0.89C171.617,48.617,171.912,49.33,171.912,50.163 M171.245,50.163
			c0-0.652-0.23-1.212-0.69-1.677c-0.462-0.471-1.017-0.704-1.669-0.704c-0.647,0-1.209,0.232-1.669,0.704
			c-0.461,0.465-0.691,1.025-0.691,1.677c0,0.654,0.23,1.211,0.691,1.68c0.46,0.468,1.021,0.703,1.669,0.703
			c0.652,0,1.207-0.235,1.669-0.703C171.015,51.374,171.245,50.817,171.245,50.163"/>
		<linearGradient id="SVGID_1_" gradientUnits="userSpaceOnUse" x1="100.0005" y1="106.3984" x2="100.0005" y2="50.2261">
			<stop  offset="0" style="stop-color:#008286"/>
			<stop  offset="0.05" style="stop-color:#008286"/>
			<stop  offset="0.176" style="stop-color:#00686B"/>
			<stop  offset="0.3039" style="stop-color:#005356"/>
			<stop  offset="0.3879" style="stop-color:#004C4E"/>
			<stop  offset="0.4783" style="stop-color:#005254"/>
			<stop  offset="0.5964" style="stop-color:#006164"/>
			<stop  offset="0.65" style="stop-color:#006B6E"/>
			<stop  offset="0.95" style="stop-color:#00969A"/>
			<stop  offset="1" style="stop-color:#00969A"/>
		</linearGradient>
		<path fill="url(#SVGID_1_)" d="M171.428,59.516c-3.314-5.448-9.665-9.29-17.118-9.29H45.688c-7.451,0-13.804,3.842-17.117,9.29
			C25.646,64.584,25,72.842,25,78.312c0,5.473,0.646,13.729,3.572,18.797c3.313,5.444,9.666,9.289,17.117,9.289H154.31
			c7.453,0,13.804-3.845,17.118-9.289c2.922-5.068,3.572-13.327,3.572-18.8C175,72.842,174.35,64.584,171.428,59.516"/>
		<g>
			<polygon fill="#FFFFFF" points="140.461,65.04 140.461,71.024 146.54,71.024 146.54,91.562 154.855,91.562 154.855,71.024 
				160.93,71.024 160.93,65.04 			"/>
			<path fill="#FFFFFF" d="M122.571,64.933c-10.509,0-12.741,3.24-12.741,13.351c0,9.807,2.433,13.297,12.741,13.297
				c3.854,0,7.03-0.308,9.237-1.532c2.117-1.227,3.39-3.324,3.452-7.07h-8c-0.124,2.805-2.1,3.092-4.689,3.092
				c-3.848,0-4.591-1.608-4.591-6.317v-0.287h17.284v-1.183C135.265,67.587,132.393,64.933,122.571,64.933z M127.114,75.222h-9.143
				c0.104-3.589,0.786-4.775,4.45-4.775c3.016,0,4.692,0.312,4.692,4.491V75.222z"/>
			<path fill="#FFFFFF" d="M58.392,75.128c0-4.113-1.613-4.409-4.608-4.409c-3.547,0-4.262,1.091-4.362,4.606h8.97V75.128z"/>
			<path fill="#FFFFFF" d="M35.019,60.127c-4.17,4.477-5.08,11.503-5.08,18.185s0.91,13.707,5.08,18.183
				c2.639,2.834,7.71,4.955,12.052,4.964h56.015V55.162H47.07C42.729,55.17,37.657,57.292,35.019,60.127z M88.544,81.609
				c-0.928-0.402-2.507-0.348-3.503-0.348c-11.012,0-12.825-2.455-12.825-7.705c0-8.35,5.388-8.517,12.825-8.517
				c4.957,0,11.558,0.086,11.558,6.386v1.068h-7.837c-0.378-2.082-2.046-2.231-3.721-2.231c-4.566,0-4.761,0.565-4.761,2.332
				c0,1.488,0.264,2.429,4.758,2.529c9.052,0.204,12.83,0.721,12.83,7.96c0,7.601-5.818,8.77-12.827,8.77
				c-1.718,0-3.389,0.012-4.928-0.109c-5.083-0.406-7.832-2.303-7.896-8.104h8.32c0.1,2.944,2.322,2.992,4.505,2.992
				c3.925,0,4.763-0.247,4.763-2.532C89.804,82.737,89.405,81.985,88.544,81.609z M66.708,78.473v1.269H49.424v0.201
				c0,4.695,0.736,6.232,4.512,6.232c2.616,0,4.521-0.288,4.606-3.093h8.167c-0.043,3.831-1.329,5.975-3.494,7.231
				c-2.231,1.238-5.424,1.542-9.278,1.542c-10.362,0-12.826-3.538-12.826-13.381c0-10.148,2.263-13.433,12.826-13.433
				C63.803,65.04,66.708,67.73,66.708,78.473z"/>
		</g>
	</g>
	<g>
		<polygon fill="#939598" points="43.538,126.081 49.414,126.081 49.414,127.298 45.057,127.298 45.057,130.471 49.1,130.471 
			49.1,131.66 45.057,131.66 45.057,134.857 49.738,134.857 49.738,136.087 43.538,136.087 		"/>
		<polygon fill="#939598" points="54.703,126.081 56.695,126.081 61.454,134.476 61.396,133.257 61.396,126.081 62.942,126.081 
			62.942,136.087 60.816,136.087 56.158,127.839 56.219,128.954 56.219,136.087 54.703,136.087 		"/>
		<path fill="#939598" d="M67.59,137.673c1.697-0.947,2.053-1.938,2.053-3.723v-7.869h1.527v7.842c0,2.11-0.353,3.807-2.986,4.854
			L67.59,137.673z"/>
		<path fill="#939598" d="M84.286,131.077c0-2.221-1.215-3.905-3.549-3.905c-2.436,0-3.595,1.685-3.595,3.876
			c0,2.139,1.117,3.963,3.495,3.963C83.171,135.011,84.286,133.299,84.286,131.077 M75.614,131.064c0-3.144,2.082-5.124,5.251-5.124
			c3.337,0,4.965,2.207,4.965,5.151c0,3.1-1.924,5.169-5.235,5.169C77.368,136.261,75.614,134.163,75.614,131.064"/>
		<polygon fill="#939598" points="91.703,132.467 88.306,126.081 90.045,126.081 92.521,131.149 95.168,126.081 96.84,126.081 
			93.228,132.438 93.228,136.087 91.703,136.087 		"/>
		<path fill="#939598" d="M104.634,135.623l0.464-1.176c0.793,0.325,1.459,0.51,2.447,0.51c1.148,0,2.225-0.382,2.225-1.474
			c0-2.252-4.857-1.697-4.857-5.009c0-1.713,1.501-2.521,3.146-2.521c1.272,0,1.979,0.255,2.633,0.537l-0.428,1.102
			c-0.638-0.208-1.214-0.393-2.162-0.393c-1.064,0-1.729,0.411-1.729,1.228c0,1.987,4.914,1.772,4.914,4.972
			c0,1.997-1.729,2.857-3.714,2.857C106.063,136.257,105.242,135.946,104.634,135.623"/>
		<path fill="#939598" d="M120.73,131.419l-1.387-4.319l-1.568,4.319H120.73z M118.385,126.081h2.025l3.537,10.006h-1.601
			l-1.214-3.494h-3.797l-1.357,3.494h-1.53L118.385,126.081z"/>
		<polygon fill="#939598" points="127.789,126.081 133.989,126.081 133.989,127.298 129.309,127.298 129.309,130.738 
			133.679,130.738 133.679,131.927 129.309,131.927 129.309,136.087 127.789,136.087 		"/>
		<polygon fill="#939598" points="138.182,126.081 144.05,126.081 144.05,127.298 139.691,127.298 139.691,130.471 143.74,130.471 
			143.74,131.66 139.691,131.66 139.691,134.857 144.378,134.857 144.378,136.087 138.182,136.087 		"/>
		<path fill="#939598" d="M151.562,131.092c1.514,0,2.492-0.509,2.492-1.91c0-1.376-0.695-1.884-2.154-1.884h-1.596v3.794H151.562z
			 M148.773,126.081h3.441c2.006,0,3.426,0.95,3.426,3.028c0,1.161-0.555,2.194-1.813,2.73l3.132,4.247h-1.913l-2.716-3.876
			c-0.228,0.04-0.582,0.054-0.854,0.054h-1.171v3.822h-1.531V126.081z"/>
		<polygon fill="#939598" points="45.491,143.93 42.148,143.93 42.148,142.684 50.347,142.684 50.347,143.93 47.007,143.93 
			47.007,152.693 45.491,152.693 		"/>
		<polygon fill="#939598" points="53.712,142.684 59.587,142.684 59.587,143.904 55.228,143.904 55.228,147.074 59.271,147.074 
			59.271,148.264 55.228,148.264 55.228,151.462 59.911,151.462 59.911,152.693 53.712,152.693 		"/>
		<path fill="#939598" d="M63.22,147.754c0-3.255,1.837-5.208,5.225-5.208c1.71,0,2.571,0.365,2.958,0.537l-0.41,1.175
			c-0.568-0.173-1.206-0.412-2.521-0.412c-2.01-0.013-3.693,1.093-3.693,3.765c0,2.73,1.752,3.949,3.974,3.949
			c0.948,0,1.729-0.17,2.335-0.339l0.356,1.174c-0.548,0.214-1.388,0.454-2.943,0.454C65.089,152.849,63.22,150.828,63.22,147.754"
			/>
		<polygon fill="#939598" points="75.12,142.684 76.636,142.684 76.636,147.059 81.77,147.059 81.77,142.684 83.286,142.684 
			83.286,152.693 81.77,152.693 81.77,148.276 76.636,148.276 76.636,152.693 75.12,152.693 		"/>
		<polygon fill="#939598" points="88.036,142.684 90.031,142.684 94.789,151.079 94.731,149.862 94.731,142.684 96.274,142.684 
			96.274,152.693 94.149,152.693 89.495,144.444 89.555,145.559 89.555,152.693 88.036,152.693 		"/>
		<path fill="#939598" d="M109.003,147.683c0-2.222-1.215-3.908-3.548-3.908c-2.437,0-3.596,1.687-3.596,3.879
			c0,2.14,1.12,3.963,3.496,3.963C107.889,151.616,109.003,149.906,109.003,147.683 M100.332,147.669
			c0-3.145,2.082-5.123,5.251-5.123c3.337,0,4.965,2.208,4.965,5.148c0,3.101-1.923,5.17-5.233,5.17
			C102.088,152.864,100.332,150.77,100.332,147.669"/>
		<polygon fill="#939598" points="114.595,142.684 116.11,142.684 116.11,151.433 120.449,151.433 120.449,152.693 114.595,152.693 
					"/>
		<path fill="#939598" d="M131.146,147.683c0-2.222-1.214-3.908-3.549-3.908c-2.436,0-3.593,1.687-3.593,3.879
			c0,2.14,1.113,3.963,3.496,3.963C130.031,151.616,131.146,149.906,131.146,147.683 M122.474,147.669
			c0-3.145,2.083-5.123,5.251-5.123c3.338,0,4.966,2.208,4.966,5.148c0,3.101-1.923,5.17-5.234,5.17
			C124.23,152.864,122.474,150.77,122.474,147.669"/>
		<path fill="#939598" d="M136.044,147.754c0-3.286,1.864-5.208,5.25-5.208c1.672,0,2.407,0.323,2.929,0.537l-0.425,1.175
			c-0.637-0.188-1.206-0.412-2.489-0.412c-1.995,0-3.711,1.06-3.711,3.765c0,2.764,1.799,3.949,3.95,3.949
			c0.594,0,1.019-0.098,1.331-0.142v-3.652h1.525v4.603c-0.945,0.311-1.792,0.48-3.11,0.48
			C137.995,152.849,136.044,150.865,136.044,147.754"/>
		<polygon fill="#939598" points="150.701,149.069 147.305,142.684 149.044,142.684 151.52,147.754 154.167,142.684 
			155.838,142.684 152.227,149.041 152.227,152.691 150.701,152.691 		"/>
		<path fill="#939598" d="M161.692,146.108h0.592v-2.45l1.075,1.607h0.019l1.087-1.616v2.459h0.603v-3.433h-0.644l-1.046,1.624
			l-1.044-1.624h-0.642V146.108z M158.823,146.108h0.61v-2.873h1.087v-0.56h-2.784v0.56h1.087V146.108z"/>
	</g>
</g>
</svg>
