<?xml version="1.0" encoding="utf-8"?>
<!DOCTYPE svg PUBLIC "-//W3C//DTD SVG 1.1//EN" "http://www.w3.org/Graphics/SVG/1.1/DTD/svg11.dtd">
<svg version="1.1" id="Layer_4" xmlns="http://www.w3.org/2000/svg" xmlns:xlink="http://www.w3.org/1999/xlink" x="0px" y="0px"
	 width="200px" height="200px" viewBox="0 0 200 200" enable-background="new 0 0 200 200" xml:space="preserve">
<g>
	<path fill="#574A46" d="M99.897,34.912c0-0.002-0.002-0.002-0.002-0.004c-0.141,0-0.285-0.002-0.426-0.002h-0.042
		c-17.344,0.006-39.38,4.963-50.527,12.639c0,14.365,4.639,30.303,12.295,44.984c-0.004,0.004-0.006,0.006-0.008,0.014
		c0.136,0.262,0.285,0.516,0.422,0.777c0.564,1.062,1.139,2.115,1.73,3.164c0.263,0.455,0.524,0.902,0.787,1.355
		c0.572,0.977,1.154,1.949,1.75,2.912c0.281,0.441,0.556,0.895,0.84,1.332c0.641,1.006,1.295,1.996,1.966,2.982
		c0.253,0.371,0.493,0.748,0.749,1.119c0.929,1.33,1.875,2.658,2.85,3.947c0.166,0.219,0.326,0.43,0.492,0.648
		c7.742,10.117,16.884,18.725,26.696,24.51c12.261-7.232,23.493-18.893,32.238-32.383c0.004,0,0.006,0,0.007,0.004
		c11.196-17.268,18.316-37.533,18.316-55.367C138.971,39.924,117.18,34.99,99.897,34.912z M89.063,45.578v0.004
		c3.658-0.428,7.18-0.662,10.291-0.666h0.003h0.029h0.006h0.03h0.009h0.038h0.038h0.01h0.031h0.01h0.039H99.6h0.002
		c1.804,0.004,3.744,0.086,5.773,0.234c0,0,0,0,0-0.004c11.504,0.846,25.73,3.969,33.556,8.584
		c-0.412,8.994-3.071,18.861-7.316,28.418c-2.435,5.486-5.391,10.869-8.752,15.926v0.004c-0.002,0.004-0.004,0.004-0.004,0.008
		c-0.239,0.352-0.48,0.715-0.725,1.068c-6.465,9.496-14.306,17.748-22.664,23.217c-6.009-3.928-11.748-9.295-16.905-15.527
		c0.002,0,0.002,0,0.004,0c-2.768-3.344-5.365-6.938-7.748-10.701c-2.422-3.826-4.617-7.824-6.539-11.896l-0.002,0.008
		c-4.799-10.207-7.838-20.871-8.272-30.523C66.838,49.703,78.547,46.811,89.063,45.578z"/>
	<path fill="#574A46" d="M126.558,78.582c-0.126,0.289-0.265,0.582-0.393,0.869C126.293,79.164,126.432,78.871,126.558,78.582z"/>
	<path fill="#574A46" d="M75.485,85.074c-0.694-1.338-1.36-2.686-1.983-4.047C74.125,82.389,74.789,83.734,75.485,85.074z"/>
	<path fill="#574A46" d="M99.569,74.623c0,0.004-0.002,0.004-0.002,0.008c0,0.012-0.002,0.021-0.004,0.033
		C99.565,74.65,99.567,74.635,99.569,74.623z"/>
	<path fill="#574A46" d="M101.758,86.541c0.11,0.188,0.192,0.389,0.291,0.586C101.95,86.93,101.87,86.729,101.758,86.541z"/>
	<path fill="#574A46" d="M90.648,100.984c-0.308-0.059-0.616-0.123-0.921-0.213C90.032,100.863,90.339,100.926,90.648,100.984z"/>
	<g>
		<rect x="35" y="144.811" fill="#574A46" width="2.828" height="14.863"/>
		<rect x="35" y="144.811" fill="#574A46" width="2.828" height="14.863"/>
		<path fill="#574A46" d="M47.999,159.93c-4.048,0-7.198-3.408-7.198-7.752c0-4.346,3.15-7.75,7.198-7.75
			c3.362,0,5.847,1.904,6.765,4.945h-3.062c-0.662-1.354-1.986-2.359-3.702-2.359c-2.443,0-4.37,2.359-4.37,5.164
			c0,2.826,1.927,5.184,4.37,5.184c1.688,0,3.04-1.047,3.702-2.398h3.045C53.801,157.986,51.298,159.93,47.999,159.93"/>
		<path fill="#574A46" d="M47.999,159.93c-4.048,0-7.198-3.408-7.198-7.752c0-4.346,3.15-7.75,7.198-7.75
			c3.362,0,5.847,1.904,6.765,4.945h-3.062c-0.662-1.354-1.986-2.359-3.702-2.359c-2.443,0-4.37,2.359-4.37,5.164
			c0,2.826,1.927,5.184,4.37,5.184c1.688,0,3.04-1.047,3.702-2.398h3.045C53.801,157.986,51.298,159.93,47.999,159.93z"/>
		<polygon fill="#574A46" points="63.697,147.445 63.697,159.674 60.874,159.674 60.874,147.445 56.889,147.445 56.889,144.811 
			67.682,144.811 67.682,147.445 		"/>
		<polygon fill="#574A46" points="63.697,147.445 63.697,159.674 60.874,159.674 60.874,147.445 56.889,147.445 56.889,144.811 
			67.682,144.811 67.682,147.445 		"/>
		<polygon fill="#574A46" points="82.801,159.674 79.521,147.725 76.224,159.674 74.297,159.674 70.082,144.811 72.007,144.811 
			75.262,156.742 78.559,144.811 80.467,144.811 83.764,156.742 87.021,144.811 88.947,144.811 84.727,159.674 		"/>
		<path fill="#574A46" d="M97.15,158.408c-0.792,0.969-2.081,1.521-3.793,1.521c-2.267,0-4.299-1.027-4.299-3.408
			c0-2.271,1.648-3.297,4.49-3.445c2.701-0.129,3.582-0.623,3.582-1.5c0-0.879-0.836-1.539-2.701-1.539
			c-1.154,0-2.677,0.363-2.869,1.971h-1.887c0.13-2.209,1.951-3.643,4.78-3.643c2.952,0,4.454,1.371,4.454,3.428v6.08
			c0,0.557,0.148,1.375,0.322,1.797h-1.799C97.277,159.355,97.169,158.92,97.15,158.408 M97.131,153.736
			c-0.732,0.643-2.037,0.801-3.344,0.881c-2.4,0.148-2.933,0.988-2.933,1.904c0,1.205,1.156,1.721,2.568,1.721
			c1.885,0,3.663-0.818,3.708-2.807V153.736z"/>
		<path fill="#574A46" d="M109.292,158.408c-0.791,0.969-2.073,1.521-3.793,1.521c-2.272,0-4.305-1.027-4.305-3.408
			c0-2.271,1.65-3.297,4.503-3.445c2.696-0.129,3.574-0.623,3.574-1.5c0-0.879-0.84-1.539-2.696-1.539
			c-1.154,0-2.677,0.363-2.872,1.971h-1.887c0.128-2.209,1.956-3.643,4.778-3.643c2.955,0,4.455,1.371,4.455,3.428v6.08
			c0,0.557,0.148,1.375,0.326,1.797h-1.807C109.42,159.355,109.312,158.92,109.292,158.408 M109.271,153.736
			c-0.73,0.643-2.034,0.801-3.339,0.881c-2.398,0.148-2.931,0.988-2.931,1.904c0,1.205,1.154,1.721,2.567,1.721
			c1.886,0,3.664-0.818,3.702-2.807V153.736z"/>
		<path fill="#574A46" d="M119.493,150.184c-1.904-0.111-3.535,0.895-3.535,3.109v6.377h-1.826v-11.029h1.757v1.244
			c0.84-1.172,2.34-1.645,3.604-1.5V150.184z"/>
		<path fill="#574A46" d="M127.088,159.947c-1.62,0-3.042-0.916-3.812-2.051v1.777h-1.748v-15.928h1.818v6.564
			c0.788-1.064,2.162-1.945,3.742-1.945c3.169,0,5.509,2.615,5.509,5.809C132.597,157.361,130.257,159.947,127.088,159.947
			 M127.088,150.055c-2.036,0-3.742,1.846-3.742,4.137c0,2.25,1.706,4.09,3.742,4.09c2.062,0,3.683-1.84,3.683-4.09
			C130.771,151.9,129.15,150.055,127.088,150.055"/>
		<path fill="#574A46" d="M145.209,154.191c0,3.17-2.4,5.738-5.551,5.738c-3.12,0-5.539-2.568-5.539-5.738
			c0-3.207,2.419-5.826,5.539-5.826C142.809,148.365,145.209,150.984,145.209,154.191 M143.393,154.191
			c0-2.291-1.67-4.154-3.734-4.154c-2.034,0-3.702,1.863-3.702,4.154c0,2.254,1.668,4.068,3.702,4.068
			C141.723,158.26,143.393,156.445,143.393,154.191"/>
		<path fill="#574A46" d="M152.902,150.184c-1.904-0.111-3.535,0.895-3.535,3.109v6.377h-1.826v-11.029h1.759v1.244
			c0.836-1.172,2.338-1.645,3.603-1.5V150.184z"/>
		<path fill="#574A46" d="M165,159.158c0,3.537-2.292,5.936-5.679,5.936c-2.606,0-4.641-1.391-5.205-3.643h1.906
			c0.732,1.648,2.488,1.883,3.299,1.883c2.834,0,3.86-2.182,3.86-4.176v-1.154c-0.798,1.068-2.162,1.943-3.752,1.943
			c-3.169,0-5.52-2.586-5.52-5.773c0-3.193,2.351-5.809,5.52-5.809c1.63,0,3.044,0.918,3.812,2.035v-1.756H165V159.158z
			 M159.43,150.055c-2.073,0-3.703,1.846-3.703,4.137c0,2.25,1.63,4.09,3.703,4.09c2.036,0,3.752-1.84,3.752-4.09
			C163.182,151.9,161.466,150.055,159.43,150.055"/>
	</g>
	<g>
		<path fill="#574A46" d="M102.907,80.801c0.007,0.006,0.015,0.016,0.021,0.02C102.922,80.816,102.914,80.809,102.907,80.801
			L102.907,80.801z"/>
		<path fill="#574A46" d="M132.352,57.107c-6.064-3.092-16.478-5.234-25.085-6.113c-1.595-0.168-3.134-0.277-4.575-0.357
			c-0.002,0-0.004-0.004-0.004-0.004c-0.008,0-0.015,0-0.021,0c-0.002,0-0.003,0-0.003,0h-0.004h-0.002c-0.002,0-0.002,0-0.002,0
			h-0.002h-0.002c-0.005,0-0.007,0-0.013,0c-0.005,0-0.015,0-0.021-0.004h-0.004c-1.079-0.055-2.099-0.076-3.044-0.08
			c-0.032,0-0.068,0-0.101,0h-0.026h-0.006h-0.02h-0.006h-0.023h-0.004c-0.007,0-0.014,0-0.02,0h-0.006h-0.014h-0.018h-0.018h-0.007
			h-0.013h-0.015h-0.016H99.25c-0.004,0-0.008,0-0.012,0h-0.018h-0.006c-8.993,0.045-24.615,2.469-32.629,6.559
			c0.624,7.287,3.018,15.32,6.566,23.162c-0.008,0.004-0.014,0.008-0.019,0.012c0.115,0.25,0.251,0.494,0.368,0.746
			c-0.013-0.014-0.016-0.025-0.023-0.043c0.688,1.49,1.421,2.967,2.188,4.43c-0.062-0.113-0.119-0.225-0.181-0.34
			c0.167,0.326,0.321,0.656,0.494,0.979c0.089,0.172,0.183,0.34,0.276,0.506c0.887,1.639,1.804,3.264,2.783,4.852
			c-0.674-1.09-1.277-2.219-1.906-3.338c0.73,1.307,1.455,2.613,2.241,3.883c-0.029-0.33-0.06-0.656-0.07-0.986
			c-0.009-0.1-0.024-0.189-0.034-0.293c-0.008-0.139-0.016-0.268-0.025-0.404c0.004,0.049,0.008,0.088,0.01,0.137
			c-0.006-0.086-0.012-0.172-0.018-0.258c-0.05-0.752-0.102-1.473-0.156-2.17c-0.015-0.197-0.029-0.398-0.043-0.592
			c-0.053-0.641-0.108-1.256-0.166-1.859c-0.015-0.158-0.027-0.33-0.049-0.49c-0.07-0.697-0.146-1.365-0.231-2.008
			c-0.026-0.189-0.054-0.371-0.084-0.559c-0.063-0.441-0.132-0.875-0.202-1.287c-0.038-0.232-0.082-0.465-0.127-0.686
			c-0.025-0.133-0.05-0.279-0.075-0.41c-0.011-0.049-0.022-0.094-0.038-0.146c-0.037-0.197-0.086-0.385-0.131-0.576
			c-0.041-0.178-0.08-0.363-0.127-0.533c-0.004-0.025-0.009-0.045-0.014-0.064c-0.112-0.43-0.229-0.842-0.363-1.236
			c-0.002,0.002-0.004,0.004-0.005,0.004c-0.386-1.168-0.847-2.217-1.429-3.133c-1.771-2.791,0.135-5.861,2.377-5.861
			c1.163,0,2.41,0.82,3.289,2.93c0.5,1.189,0.84,2.359,1.061,3.473c0.111,0.561,0.188,1.109,0.24,1.641
			c0.023,0.268,0.027,0.523,0.039,0.791c0.014,0.26,0.038,0.523,0.04,0.775c0.002,0.262-0.015,0.508-0.028,0.76
			c-0.008,0.24-0.01,0.479-0.027,0.709c-0.017,0.244-0.053,0.469-0.078,0.703c-0.031,0.258-0.056,0.523-0.097,0.77
			c-0.002,0.004-0.002,0.012-0.004,0.014c0,0.01,0,0.01-0.001,0.01c0,0.006,0,0.01-0.002,0.014c0,0.004,0,0.008,0,0.008
			c-0.002,0.008-0.002,0.012-0.004,0.014c0,0.004,0,0.008-0.002,0.008c0,0.004,0,0.008-0.002,0.012c0,0.008,0,0.012,0,0.012
			c-0.002,0.004-0.002,0.008-0.002,0.012c0,0.002,0,0.002,0,0.006c-0.002,0.004-0.002,0.012-0.004,0.016c0,0.004,0,0.006,0,0.006
			c-0.002,0.004-0.002,0.008-0.004,0.012c0,0.01,0,0.01,0,0.012l-0.003,0.016c0.375-0.432,0.774-0.852,1.21-1.244
			c0.934-0.832,1.943-1.523,3.008-2.064c-0.445,0.33-0.879,0.676-1.298,1.055c-2.606,2.334-4.179,5.523-4.428,8.988
			c-0.021,0.311-0.03,0.623-0.03,0.939c-0.009,3.154,1.129,6.15,3.244,8.508c0.336,0.377,0.709,0.699,1.08,1.021
			c-0.156-0.133-0.319-0.238-0.469-0.379c0.168,0.154,0.35,0.281,0.519,0.432c0.18,0.152,0.358,0.309,0.544,0.449
			c0.125,0.094,0.245,0.201,0.373,0.287c-0.099-0.066-0.182-0.15-0.274-0.221c0.285,0.211,0.581,0.404,0.879,0.59
			c-0.202-0.125-0.409-0.23-0.604-0.369c0.199,0.145,0.41,0.25,0.62,0.375c0.185,0.113,0.361,0.232,0.551,0.33
			c0.124,0.068,0.249,0.137,0.377,0.193c-0.074-0.033-0.143-0.082-0.215-0.117c0.321,0.158,0.647,0.299,0.979,0.428
			c-0.256-0.096-0.514-0.191-0.765-0.311c0.261,0.127,0.533,0.225,0.802,0.33c0.158,0.061,0.312,0.137,0.471,0.189
			c0.123,0.037,0.248,0.068,0.37,0.1c-0.048-0.012-0.089-0.029-0.136-0.047c0.367,0.109,0.74,0.199,1.115,0.268
			c-0.021-0.004-0.04-0.006-0.059-0.008c0.148,0.025,0.289,0.074,0.442,0.102c0.011-0.018,0.019-0.025,0.028-0.035
			c0.273,0.045,0.545,0.107,0.821,0.123c0.188,0.012,0.375,0.014,0.561,0.014c2.612,0,5.16-0.998,7.229-2.85
			c1.944-1.748,3.097-4.131,3.237-6.715c0.081-1.387-0.183-2.73-0.68-3.953c0.007-0.008,0.013-0.021,0.018-0.031
			c-0.067-0.174-0.17-0.34-0.256-0.512c0.004,0.006,0.006,0.021,0.009,0.027c-0.103-0.215-0.193-0.428-0.312-0.629
			c0.004,0.006,0.01,0.012,0.013,0.016c-0.023-0.047-0.053-0.092-0.078-0.137c-0.062-0.111-0.152-0.205-0.229-0.312
			c-0.173-0.26-0.342-0.523-0.55-0.762c0.088,0.094,0.143,0.213,0.225,0.314c-0.101-0.121-0.179-0.26-0.285-0.377
			c-1.038-1.162-2.996-2.459-5.365-2.588c-0.124-0.004-0.248-0.008-0.373-0.008c-1.568,0-3.017,0.553-4.2,1.619
			c-1.675,1.492-2.054,3.076-2.054,4.201c0,0.074,0.002,0.145,0.004,0.215c0.058,1.305,0.605,2.348,1.053,2.852
			c0.869,0.969,1.807,1.326,2.605,1.326c0.621,0,1.149-0.211,1.495-0.52c0.456-0.412,0.716-0.939,0.716-1.459
			c0-0.379-0.133-0.754-0.429-1.084c-0.378-0.424-0.903-0.65-1.427-0.65c-0.24,0-0.478,0.049-0.697,0.148
			c-0.043,0.016-0.09,0.021-0.129,0.021c-0.092,0-0.176-0.031-0.241-0.1c-0.04-0.045-0.063-0.09-0.074-0.141
			c-0.043-0.166-0.077-0.363-0.077-0.59c0-0.59,0.232-1.344,1.118-2.143c0.673-0.598,1.457-0.902,2.335-0.902
			c0.072,0,0.145,0,0.219,0.004c1.424,0.078,2.756,0.891,3.447,1.658c0.14,0.16,0.248,0.342,0.369,0.514
			c0.09,0.123,0.182,0.24,0.256,0.375c0.094,0.158,0.16,0.324,0.234,0.492c0.066,0.148,0.145,0.295,0.2,0.451
			c0.045,0.125,0.067,0.26,0.106,0.389c0.148,0.545,0.25,1.113,0.254,1.701c0.002-0.004,0.002-0.008,0.004-0.008
			c0.002,0.172-0.004,0.346-0.017,0.52c-0.122,1.805-0.942,3.471-2.312,4.693c-1.071,0.953-2.298,1.605-3.59,1.922
			c0.004,0,0.006-0.004,0.006-0.004c-0.584,0.146-1.185,0.221-1.783,0.221c-0.132,0-0.266,0-0.404-0.008
			c-2.064-0.115-3.975-1.084-5.52-2.811c-1.643-1.838-2.529-4.186-2.527-6.648c0-0.186,0.006-0.375,0.013-0.564
			c0.153-2.795,1.403-5.379,3.511-7.273c2.353-2.105,5.156-3.248,7.954-3.248c0.188,0,0.377,0.008,0.566,0.018
			c0.671,0.039,1.327,0.15,1.979,0.312c0.204,0.053,0.404,0.113,0.606,0.178c0.021,0.008,0.045,0.016,0.065,0.021v0.002
			c0.242,0.082,0.479,0.191,0.712,0.289c0.28,0.115,0.56,0.217,0.827,0.352c0.242,0.121,0.479,0.271,0.714,0.408
			c0.316,0.193,0.641,0.395,0.946,0.621c0.243,0.172,0.486,0.346,0.721,0.541c0.086,0.068,0.163,0.141,0.247,0.215
			c0.002,0,0.002,0.002,0.002,0.002c0.018,0.018,0.038,0.033,0.057,0.049c0.293,0.256,0.57,0.529,0.845,0.812
			c0.04,0.047,0.092,0.094,0.134,0.137c-0.333-0.346-0.666-0.672-1.014-0.979c0.357,0.314,0.707,0.646,1.037,1.01
			c0.081,0.078,0.155,0.152,0.236,0.24c0.203,0.219,0.373,0.449,0.549,0.676c0.004-0.008,0.015-0.016,0.015-0.02
			c1.528,1.92,2.438,4.045,2.771,6.211c0.002,0.004,0.007,0.008,0.022,0.012c0.666,4.318-0.978,8.791-4.71,12.133
			c-2.684,2.414-6.047,3.594-9.396,3.594c-1.9,0-3.792-0.379-5.56-1.129l0.004-0.004l-0.095-0.037l0.059,0.062l0.002-0.002
			c3.65,4.26,7.57,7.977,11.606,10.877c6.238-4.49,12.215-10.926,17.328-18.283c0.729-1.053,1.443-2.117,2.131-3.201
			c0.485-0.758,0.948-1.529,1.405-2.301c-0.193,0.33-0.382,0.668-0.579,1.002c0.277-0.459,0.541-0.926,0.813-1.383
			c0.247-0.418,0.496-0.824,0.737-1.242c0.22-0.377,0.428-0.754,0.643-1.133c-0.094,0.164-0.194,0.324-0.278,0.482
			c0.296-0.529,0.589-1.062,0.888-1.594c-0.206,0.371-0.409,0.744-0.609,1.111c0.234-0.414,0.451-0.832,0.678-1.246
			c0.198-0.357,0.39-0.707,0.581-1.062c0.286-0.551,0.559-1.102,0.835-1.652c-0.06,0.127-0.135,0.256-0.195,0.385
			c0.226-0.439,0.442-0.877,0.662-1.316c-0.151,0.309-0.304,0.619-0.467,0.932c0.222-0.438,0.447-0.875,0.663-1.314
			c0.078-0.172,0.172-0.348,0.26-0.523c0.417-0.881,0.811-1.766,1.2-2.652c-0.05,0.121-0.112,0.24-0.163,0.357
			c0.181-0.406,0.383-0.82,0.556-1.227c0.004-0.016,0.01-0.023,0.013-0.035h-0.002C129.695,71.256,131.765,63.863,132.352,57.107z
			 M97.51,61.916v0.004c0,0,0,0,0,0.004c-0.049,0.781-0.15,1.617-0.283,2.473c-0.04,0.289-0.105,0.582-0.157,0.873
			c-0.106,0.586-0.206,1.172-0.334,1.77c-0.079,0.342-0.163,0.686-0.243,1.025c-0.128,0.549-0.254,1.092-0.398,1.627
			c-0.09,0.354-0.184,0.689-0.281,1.039c-0.134,0.488-0.268,0.975-0.4,1.439c-0.104,0.34-0.201,0.668-0.301,0.99
			c-0.082,0.275-0.17,0.555-0.25,0.812c-0.172,0.547-0.338,1.072-0.493,1.527c-0.472,0.025-0.945,0.074-1.405,0.141
			c-0.045-0.174-0.083-0.359-0.128-0.561c-0.191-0.854-0.397-1.859-0.599-2.951c-0.564-3.055-1.057-6.787-0.867-9.83
			c0,0.002,0.002,0.006,0.002,0.006c0.035-0.545,0.098-1.066,0.178-1.559c0.013-0.076,0.021-0.15,0.035-0.221
			c0.088-0.467,0.201-0.906,0.338-1.309c0.021-0.072,0.053-0.137,0.076-0.203c0.305-0.795,0.725-1.428,1.293-1.85
			c0.285-0.207,0.596-0.383,0.951-0.471h0.002c0.003,0,0.007,0,0.016-0.004c0.002,0,0.002,0,0.002,0c0.002,0,0.002,0,0.003,0h0.002
			c0.145-0.041,0.296-0.064,0.456-0.082c0.002,0,0.002,0,0.004,0h0.006c0.002,0,0.006,0,0.007,0c0.002,0,0.004,0,0.005,0
			c0.004,0,0.006,0,0.01,0c0.092-0.008,0.177-0.012,0.267-0.012C97.119,56.596,97.693,58.861,97.51,61.916z M100.872,79.346
			c-0.169-0.1-0.337-0.205-0.503-0.289c0.006,0,0.014,0.002,0.017,0.006c-0.046-0.021-0.087-0.053-0.136-0.076
			c0.078,0.043,0.158,0.076,0.238,0.119c-0.035-0.016-0.066-0.027-0.103-0.043c0.123,0.062,0.241,0.131,0.36,0.197
			c-0.028-0.014-0.049-0.031-0.072-0.043c0.084,0.043,0.165,0.094,0.25,0.145c-0.059-0.039-0.117-0.066-0.178-0.102
			C100.787,79.287,100.828,79.316,100.872,79.346z M101.288,79.572c0.065,0.041,0.122,0.074,0.187,0.117
			c-0.039-0.021-0.069-0.033-0.099-0.059C101.349,79.615,101.313,79.594,101.288,79.572z M101.768,79.91
			c-0.046-0.037-0.1-0.082-0.145-0.113c0.139,0.092,0.276,0.197,0.413,0.297C101.944,80.027,101.86,79.975,101.768,79.91z
			 M101.983,80.068c0.063,0.051,0.141,0.084,0.204,0.137c0.154,0.119,0.313,0.244,0.464,0.371
			C102.43,80.393,102.2,80.234,101.983,80.068z M104.215,71.396c-0.911,1.396-1.806,2.691-2.592,3.797
			c-0.33,0.455-0.643,0.896-0.924,1.277l-0.002,0.004l-0.001,0.01c-0.002,0-0.004,0.006-0.007,0.01
			c-0.438-0.17-0.881-0.314-1.33-0.445c0.062-0.43,0.131-0.91,0.208-1.418c0.06-0.383,0.126-0.785,0.196-1.207
			c-0.062,0.371-0.123,0.734-0.17,1.072c0.055-0.383,0.127-0.789,0.197-1.211c0.029-0.184,0.064-0.373,0.096-0.561
			c0.058-0.316,0.111-0.633,0.173-0.961c0.025-0.148,0.052-0.289,0.079-0.449c1.265-6.688,3.674-15.498,7.569-15.498
			c0.171,0,0.347,0.018,0.535,0.057c-0.002-0.004-0.002-0.008-0.003-0.012c0.068,0.014,0.146,0.029,0.225,0.057
			c2.424,0.682,1.942,3.748,0.312,7.412v-0.004C107.627,65.922,105.896,68.824,104.215,71.396z M99.847,72.965
			c-0.019,0.082-0.032,0.17-0.045,0.252C99.814,73.137,99.828,73.047,99.847,72.965z M106,79.965
			c-0.032-0.035-0.07-0.068-0.113-0.102v-0.002c-0.272-0.268-0.552-0.535-0.845-0.783c0.04-0.074,0.08-0.148,0.13-0.223
			c0.163-0.291,0.336-0.594,0.53-0.922c0.238-0.4,0.492-0.826,0.76-1.26c-0.253,0.41-0.492,0.809-0.72,1.189
			c0.456-0.764,0.967-1.607,1.521-2.482c0,0,0,0,0-0.004c0.258-0.404,0.526-0.824,0.811-1.242c0.002,0,0.002-0.01,0.004-0.014
			c0.002,0,0.004,0,0.004-0.004c0.428-0.645,0.884-1.301,1.337-1.943c2.505-3.506,5.36-6.652,7.566-6.652
			c0.452,0,0.884,0.133,1.273,0.43c1.921,1.459-0.267,4.385-3.487,7.307c-0.644,0.586-1.328,1.176-2.036,1.752
			c-0.002,0-0.002,0-0.004,0.002c-0.003,0-0.007,0.006-0.011,0.014C110.338,76.961,107.778,78.77,106,79.965z M109.423,85.277
			c-0.198-0.537-0.437-1.066-0.698-1.574c2.677-2.213,7.198-5.543,10.187-5.543c0.964,0,1.76,0.346,2.285,1.186
			c0.232,0.367,0.34,0.713,0.342,1.043C121.54,83.199,113.794,84.674,109.423,85.277z"/>
	</g>
</g>
</svg>
