<?xml version="1.0" encoding="utf-8"?>
<!-- Generator: Adobe Illustrator 15.0.0, SVG Export Plug-In . SVG Version: 6.00 Build 0)  -->
<!DOCTYPE svg PUBLIC "-//W3C//DTD SVG 1.1//EN" "http://www.w3.org/Graphics/SVG/1.1/DTD/svg11.dtd">
<svg version="1.1" id="Layer_8" xmlns="http://www.w3.org/2000/svg" xmlns:xlink="http://www.w3.org/1999/xlink" x="0px" y="0px"
	 width="200px" height="200px" viewBox="0 0 200 200" enable-background="new 0 0 200 200" xml:space="preserve">
<g>
	<path fill="#706D6E" d="M200,97.966V94.45h-4.366v-5.469l-0.149,0.045l-4.102,1.255l-0.08,0.025v4.143h-6.476v-2.308
		c0-1.076,0.241-1.898,0.714-2.446c0.47-0.542,1.143-0.817,2.002-0.817c0.616,0,1.256,0.145,1.897,0.432l0.162,0.072v-3.705
		l-0.076-0.027c-0.601-0.216-1.416-0.324-2.428-0.324c-1.273,0-2.43,0.276-3.439,0.826c-1.011,0.55-1.806,1.336-2.362,2.334
		c-0.554,0.997-0.836,2.15-0.836,3.424v2.538h-3.042v3.517h3.042v14.818h4.366V97.966h6.476v9.417c0,3.878,1.829,5.843,5.436,5.843
		c0.595,0,1.217-0.069,1.854-0.205c0.648-0.14,1.09-0.278,1.351-0.429l0.057-0.034v-3.549l-0.177,0.117
		c-0.236,0.158-0.533,0.287-0.878,0.382c-0.348,0.099-0.638,0.147-0.862,0.147c-0.846,0-1.472-0.229-1.858-0.677
		c-0.392-0.454-0.591-1.246-0.591-2.356v-8.657H200L200,97.966z M167.669,109.657c-1.584,0-2.834-0.526-3.715-1.561
		c-0.886-1.041-1.334-2.524-1.334-4.408c0-1.944,0.448-3.466,1.334-4.525c0.883-1.052,2.119-1.585,3.68-1.585
		c1.515,0,2.72,0.51,3.582,1.516c0.867,1.011,1.309,2.521,1.309,4.488c0,1.99-0.414,3.52-1.232,4.543
		C170.482,109.142,169.264,109.657,167.669,109.657L167.669,109.657z M167.863,94.008c-3.022,0-5.425,0.886-7.137,2.633
		c-1.712,1.748-2.578,4.167-2.578,7.188c0,2.87,0.847,5.181,2.518,6.861c1.669,1.684,3.941,2.536,6.755,2.536
		c2.933,0,5.286-0.898,6.995-2.67c1.712-1.77,2.579-4.165,2.579-7.116c0-2.916-0.812-5.243-2.418-6.913
		C172.971,94.855,170.711,94.008,167.863,94.008L167.863,94.008z M151.108,94.008c-2.057,0-3.758,0.526-5.058,1.563
		c-1.307,1.043-1.972,2.411-1.972,4.067c0,0.86,0.146,1.625,0.427,2.274c0.283,0.65,0.722,1.223,1.305,1.704
		c0.577,0.477,1.469,0.976,2.652,1.483c0.994,0.41,1.737,0.756,2.209,1.029c0.46,0.267,0.786,0.536,0.971,0.797
		c0.18,0.257,0.271,0.606,0.271,1.041c0,1.23-0.924,1.831-2.821,1.831c-0.704,0-1.508-0.147-2.388-0.438
		c-0.879-0.289-1.702-0.706-2.443-1.239l-0.183-0.13v4.203l0.068,0.031c0.616,0.284,1.397,0.526,2.314,0.715
		c0.916,0.188,1.749,0.285,2.471,0.285c2.232,0,4.03-0.527,5.341-1.572c1.32-1.05,1.989-2.451,1.989-4.164
		c0-1.236-0.36-2.297-1.07-3.15c-0.704-0.848-1.929-1.626-3.635-2.314c-1.359-0.546-2.229-0.998-2.588-1.346
		c-0.348-0.336-0.522-0.811-0.522-1.412c0-0.534,0.216-0.961,0.661-1.307c0.45-0.347,1.074-0.524,1.858-0.524
		c0.729,0,1.472,0.115,2.213,0.341c0.739,0.225,1.389,0.526,1.931,0.895l0.178,0.122v-3.987l-0.068-0.029
		c-0.501-0.214-1.158-0.398-1.96-0.547C152.462,94.082,151.738,94.008,151.108,94.008L151.108,94.008z M132.698,109.657
		c-1.585,0-2.835-0.526-3.715-1.561c-0.887-1.041-1.334-2.524-1.334-4.408c0-1.944,0.449-3.466,1.334-4.525
		c0.88-1.052,2.118-1.585,3.68-1.585c1.514,0,2.719,0.51,3.582,1.516c0.868,1.011,1.307,2.521,1.307,4.488
		c0,1.99-0.413,3.52-1.23,4.543C135.511,109.142,134.292,109.657,132.698,109.657L132.698,109.657z M132.892,94.008
		c-3.024,0-5.425,0.886-7.136,2.633c-1.71,1.748-2.579,4.167-2.579,7.188c0,2.872,0.848,5.181,2.519,6.861
		c1.67,1.684,3.943,2.536,6.754,2.536c2.931,0,5.286-0.898,6.998-2.67c1.71-1.77,2.578-4.165,2.578-7.116
		c0-2.916-0.813-5.243-2.42-6.913C137.999,94.855,135.74,94.008,132.892,94.008L132.892,94.008z M116.548,97.625V94.45h-4.312
		v18.334h4.312v-9.378c0-1.596,0.363-2.905,1.076-3.896c0.704-0.978,1.643-1.473,2.789-1.473c0.39,0,0.825,0.064,1.297,0.191
		c0.468,0.126,0.806,0.262,1.006,0.407l0.182,0.131v-4.349l-0.07-0.03c-0.401-0.171-0.971-0.257-1.688-0.257
		c-1.084,0-2.054,0.349-2.885,1.034c-0.73,0.603-1.256,1.43-1.659,2.46H116.548L116.548,97.625z M104.513,94.008
		c-1.979,0-3.743,0.424-5.245,1.261c-1.504,0.838-2.667,2.035-3.46,3.557c-0.787,1.519-1.187,3.291-1.187,5.27
		c0,1.731,0.388,3.322,1.154,4.723c0.767,1.404,1.854,2.502,3.228,3.264c1.371,0.761,2.958,1.146,4.713,1.146
		c2.05,0,3.801-0.409,5.203-1.219l0.058-0.032v-3.95l-0.183,0.132c-0.636,0.464-1.346,0.833-2.108,1.099
		c-0.763,0.267-1.458,0.401-2.068,0.401c-1.691,0-3.049-0.53-4.036-1.574c-0.988-1.045-1.489-2.513-1.489-4.36
		c0-1.858,0.522-3.364,1.552-4.475c1.028-1.108,2.387-1.67,4.046-1.67c1.416,0,2.797,0.48,4.105,1.428l0.181,0.131v-4.163
		l-0.06-0.033c-0.49-0.275-1.161-0.503-1.995-0.675C106.094,94.094,105.284,94.008,104.513,94.008L104.513,94.008z M91.65,94.45
		h-4.312v18.334h4.312V94.45L91.65,94.45z M89.538,86.639c-0.709,0-1.329,0.241-1.837,0.72c-0.51,0.48-0.77,1.084-0.77,1.798
		c0,0.702,0.257,1.296,0.762,1.764c0.502,0.465,1.124,0.701,1.845,0.701c0.722,0,1.346-0.236,1.854-0.701
		c0.512-0.468,0.771-1.062,0.771-1.764c0-0.689-0.252-1.287-0.75-1.779C90.916,86.888,90.285,86.639,89.538,86.639L89.538,86.639z
		 M78.777,93.097v19.687h4.402V87.201h-6.092l-7.743,19.002L61.83,87.201h-6.34v25.583h4.136V93.095h0.143l7.935,19.689h3.121
		l7.811-19.687H78.777L78.777,93.097z"/>
	<path fill="#F1511B" d="M20.289,98.94H0V78.651h20.289V98.94L20.289,98.94z"/>
	<path fill="#80CC28" d="M42.69,98.94H22.401V78.651H42.69V98.94L42.69,98.94z"/>
	<path fill="#00ADEF" d="M20.288,121.35H0v-20.289h20.289V121.35L20.288,121.35z"/>
	<path fill="#FBBC09" d="M42.69,121.35H22.401v-20.289H42.69V121.35L42.69,121.35z"/>
</g>
</svg>
