<?xml version="1.0" encoding="utf-8"?>
<!-- Generator: Adobe Illustrator 15.0.0, SVG Export Plug-In . SVG Version: 6.00 Build 0)  -->
<!DOCTYPE svg PUBLIC "-//W3C//DTD SVG 1.1//EN" "http://www.w3.org/Graphics/SVG/1.1/DTD/svg11.dtd">
<svg version="1.1" id="Layer_1" xmlns="http://www.w3.org/2000/svg" xmlns:xlink="http://www.w3.org/1999/xlink" x="0px" y="0px"
	 width="200px" height="200px" viewBox="0 0 200 200" enable-background="new 0 0 200 200" xml:space="preserve">
<g>
	<path fill="#574A46" d="M200,97.967V94.45h-4.368v-5.468l-0.146,0.045l-4.103,1.255l-0.081,0.024v4.144h-6.476v-2.308
		c0-1.075,0.24-1.897,0.715-2.446c0.47-0.542,1.143-0.817,2.001-0.817c0.616,0,1.255,0.146,1.897,0.432l0.161,0.072v-3.705
		l-0.075-0.028c-0.6-0.215-1.416-0.324-2.427-0.324c-1.273,0-2.432,0.277-3.44,0.827c-1.011,0.55-1.805,1.335-2.361,2.334
		c-0.555,0.997-0.836,2.149-0.836,3.424v2.538h-3.042v3.518h3.042v14.816h4.365V97.967h6.476v9.416c0,3.879,1.829,5.844,5.437,5.844
		c0.594,0,1.217-0.07,1.854-0.205c0.648-0.141,1.09-0.279,1.35-0.43l0.058-0.033v-3.549l-0.178,0.117
		c-0.236,0.158-0.532,0.287-0.878,0.383c-0.348,0.098-0.638,0.146-0.862,0.146c-0.846,0-1.471-0.229-1.858-0.678
		c-0.393-0.453-0.592-1.246-0.592-2.355v-8.656H200L200,97.967z M167.669,109.656c-1.585,0-2.834-0.525-3.715-1.561
		c-0.886-1.041-1.335-2.523-1.335-4.408c0-1.943,0.449-3.465,1.335-4.524c0.882-1.052,2.119-1.585,3.679-1.585
		c1.515,0,2.72,0.51,3.582,1.516c0.868,1.012,1.309,2.521,1.309,4.488c0,1.99-0.414,3.52-1.23,4.543
		C170.481,109.141,169.263,109.656,167.669,109.656L167.669,109.656z M167.863,94.008c-3.023,0-5.425,0.885-7.138,2.633
		c-1.711,1.747-2.578,4.166-2.578,7.187c0,2.871,0.847,5.18,2.518,6.863c1.67,1.682,3.943,2.535,6.756,2.535
		c2.931,0,5.284-0.898,6.996-2.67c1.711-1.77,2.578-4.166,2.578-7.117c0-2.916-0.813-5.242-2.419-6.913
		C172.97,94.855,170.711,94.008,167.863,94.008L167.863,94.008z M151.108,94.008c-2.057,0-3.758,0.526-5.058,1.563
		c-1.308,1.043-1.971,2.412-1.971,4.068c0,0.859,0.144,1.625,0.425,2.273c0.283,0.65,0.722,1.223,1.305,1.705
		c0.578,0.477,1.471,0.975,2.654,1.484c0.994,0.408,1.735,0.756,2.207,1.027c0.46,0.268,0.787,0.537,0.972,0.799
		c0.18,0.256,0.271,0.605,0.271,1.039c0,1.23-0.922,1.83-2.82,1.83c-0.704,0-1.508-0.146-2.388-0.436
		c-0.88-0.291-1.702-0.705-2.444-1.24l-0.181-0.129v4.203l0.066,0.031c0.618,0.285,1.396,0.525,2.314,0.715
		c0.916,0.189,1.749,0.285,2.473,0.285c2.231,0,4.028-0.529,5.34-1.572c1.319-1.051,1.988-2.451,1.988-4.164
		c0-1.236-0.359-2.297-1.069-3.15c-0.705-0.848-1.928-1.627-3.635-2.314c-1.359-0.545-2.23-0.998-2.589-1.346
		c-0.347-0.335-0.522-0.811-0.522-1.412c0-0.533,0.217-0.96,0.663-1.307c0.448-0.347,1.073-0.524,1.857-0.524
		c0.728,0,1.472,0.115,2.212,0.34c0.74,0.226,1.39,0.527,1.932,0.896l0.179,0.121v-3.987l-0.068-0.029
		c-0.501-0.214-1.16-0.397-1.962-0.547C152.461,94.083,151.737,94.008,151.108,94.008L151.108,94.008z M132.697,109.656
		c-1.584,0-2.834-0.525-3.714-1.561c-0.887-1.041-1.334-2.523-1.334-4.408c0-1.943,0.448-3.465,1.335-4.524
		c0.88-1.052,2.117-1.585,3.679-1.585c1.513,0,2.718,0.51,3.581,1.516c0.868,1.012,1.308,2.521,1.308,4.488
		c0,1.99-0.414,3.52-1.23,4.543C135.511,109.141,134.292,109.656,132.697,109.656L132.697,109.656z M132.893,94.008
		c-3.024,0-5.426,0.885-7.137,2.633c-1.711,1.747-2.579,4.166-2.579,7.187c0,2.873,0.847,5.18,2.518,6.863
		c1.671,1.682,3.943,2.535,6.756,2.535c2.93,0,5.284-0.898,6.996-2.67c1.711-1.77,2.578-4.166,2.578-7.117
		c0-2.916-0.813-5.242-2.42-6.913C137.999,94.855,135.74,94.008,132.893,94.008L132.893,94.008z M116.549,97.625V94.45h-4.313
		v18.333h4.313v-9.379c0-1.594,0.361-2.904,1.075-3.894c0.704-0.977,1.643-1.473,2.789-1.473c0.389,0,0.824,0.064,1.297,0.19
		c0.468,0.126,0.806,0.263,1.006,0.407l0.181,0.131v-4.348l-0.069-0.03c-0.402-0.171-0.97-0.257-1.689-0.257
		c-1.083,0-2.053,0.348-2.884,1.033c-0.729,0.604-1.257,1.43-1.659,2.46H116.549L116.549,97.625z M104.513,94.008
		c-1.979,0-3.744,0.424-5.245,1.26c-1.504,0.838-2.667,2.035-3.459,3.557c-0.787,1.52-1.188,3.292-1.188,5.269
		c0,1.732,0.388,3.322,1.154,4.725c0.768,1.402,1.854,2.5,3.228,3.262c1.373,0.762,2.958,1.146,4.715,1.146
		c2.05,0,3.799-0.41,5.202-1.219l0.057-0.031v-3.951l-0.181,0.131c-0.636,0.465-1.346,0.834-2.11,1.1
		c-0.763,0.266-1.457,0.4-2.066,0.4c-1.692,0-3.051-0.529-4.038-1.574c-0.988-1.045-1.489-2.512-1.489-4.359
		c0-1.859,0.522-3.365,1.553-4.475c1.027-1.107,2.388-1.669,4.045-1.669c1.417,0,2.799,0.479,4.105,1.428l0.181,0.131v-4.163
		l-0.058-0.032c-0.492-0.275-1.163-0.503-1.996-0.676C106.094,94.094,105.283,94.008,104.513,94.008L104.513,94.008z M91.65,94.45
		h-4.312v18.333h4.312V94.45L91.65,94.45z M89.538,86.639c-0.709,0-1.329,0.241-1.837,0.72c-0.511,0.48-0.77,1.084-0.77,1.798
		c0,0.702,0.256,1.296,0.762,1.763c0.503,0.466,1.124,0.702,1.846,0.702c0.722,0,1.346-0.236,1.854-0.702
		c0.512-0.468,0.771-1.062,0.771-1.764c0-0.688-0.252-1.287-0.75-1.779C90.916,86.888,90.285,86.639,89.538,86.639L89.538,86.639z
		 M78.777,93.097v19.687h4.402V87.2h-6.092l-7.743,19.003L61.829,87.2h-6.34v25.583h4.136V93.095h0.143l7.934,19.688h3.122
		l7.811-19.687H78.777L78.777,93.097z"/>
	<path fill="#574A46" d="M20.289,98.94H0V78.651h20.289V98.94L20.289,98.94z"/>
	<path fill="#574A46" d="M42.69,98.94H22.401V78.651H42.69V98.94L42.69,98.94z"/>
	<path fill="#574A46" d="M20.289,121.35H0v-20.289h20.289V121.35L20.289,121.35z"/>
	<path fill="#574A46" d="M42.69,121.35H22.401v-20.289H42.69V121.35L42.69,121.35z"/>
</g>
</svg>
